<svg width="547" height="362" fill="none" xmlns="http://www.w3.org/2000/svg"><g clip-path="url(#a)"><rect width="547" height="362" rx="30" fill="#F5F5F5"/><g opacity=".7"><path fill-rule="evenodd" clip-rule="evenodd" d="M535.688 112.62c5.42-1.376 10.915 1.961 12.195 7.404l20.666 87.907a9.999 9.999 0 0 1-5.472 11.334l-44.784 21.101a10.009 10.009 0 0 1-5.477.879l-21.761-2.664a10 10 0 0 1-8.539-7.723l-20.225-89.566a10 10 0 0 1 7.294-11.896l7.271-1.845 16.71-4.241 14.389-3.652 14.39-3.652 13.343-3.386z" fill="#A64CED"/><path d="M493.566 123.31c-2.127-8.381-3.596-25.85 7.544-28.677 11.14-2.827 18.798 13.071 21.235 21.373m-28.779 7.304 14.389-3.652m-14.389 3.652-16.71 4.241m45.489-11.545 13.343-3.386c5.42-1.376 10.915 1.961 12.195 7.404l20.666 87.907a9.999 9.999 0 0 1-5.472 11.334l-44.784 21.101a10.009 10.009 0 0 1-5.477.879l-21.761-2.664a10 10 0 0 1-8.539-7.723l-20.225-89.566a10 10 0 0 1 7.294-11.896l7.271-1.845m45.489-11.545-14.39 3.652m0 0c-3.969-12.975-15.033-38.16-27.533-35.099-12.499 3.061-7.585 29.937-3.566 42.992" stroke="#A64CED" stroke-width="2" stroke-linecap="round" stroke-linejoin="round"/><path d="m514.029 230.066-5.547-19.932m-16.641-59.794 11.094 39.863" stroke="#fff" stroke-width="2" stroke-linecap="round" stroke-linejoin="round"/></g><g opacity=".7"><path fill-rule="evenodd" clip-rule="evenodd" d="M446.764 396.321c5.157 1.977 10.94-.601 12.917-5.758l21.997-57.382c1.977-5.157-.601-10.94-5.758-12.917l-10.2-3.91-11.165-4.28-11.164-4.279-10.118-3.879-.78-.299c-5.157-1.977-10.94.601-12.917 5.758l-21.997 57.382c-1.976 5.157.602 10.94 5.758 12.917l43.427 16.647z" fill="#FFAA4C"/><path d="m465.72 316.354 10.2 3.91c5.157 1.977 7.735 7.76 5.758 12.917l-21.997 57.382c-1.977 5.157-7.76 7.735-12.917 5.758l-43.427-16.647c-5.157-1.977-7.734-7.76-5.758-12.917l21.997-57.382c1.977-5.157 7.76-7.735 12.917-5.758l.78.299m32.447 12.438c1.977-7.245 3.365-22.559-6.897-25.853-10.262-3.293-14.564 10.157-15.432 17.294m22.329 8.559-11.165-4.28m-11.164-4.279 11.164 4.279m-11.164-4.279-10.118-3.879m21.282 8.158c3.9-9.913 9.399-30.433.198-33.21-9.201-2.777-18.154 15.544-21.48 25.052" stroke="#FFAA4C" stroke-width="2" stroke-linecap="round" stroke-linejoin="round"/></g><g opacity=".7"><path fill-rule="evenodd" clip-rule="evenodd" d="M111.991 381.52c-4.697 2.905-10.86 1.454-13.765-3.243L78 345.585c-2.905-4.697-1.454-10.86 3.243-13.765l4.263-2.638 7.296-4.513 7.295-4.514 6.611-4.09a7.775 7.775 0 0 1 10.702 2.521l21.396 34.585c2.906 4.697 1.454 10.86-3.242 13.765l-23.573 14.584z" fill="#2FDBBC"/><path d="m85.506 329.182-4.263 2.638c-4.697 2.905-6.148 9.068-3.243 13.765l20.226 32.692c2.905 4.697 9.068 6.148 13.765 3.243l23.573-14.584c4.696-2.905 6.148-9.068 3.242-13.765l-21.396-34.585a7.775 7.775 0 0 0-10.702-2.521v0m-21.202 13.117c-2.365-4.841-5.397-15.449 1.395-19.147 6.791-3.697 11.627 5.207 13.196 10.12m-14.59 9.027 7.294-4.513m7.296-4.514-7.295 4.514m7.295-4.514 6.611-4.09m-13.906 8.604c-4.078-6.465-10.706-20.191-4.593-23.382 6.113-3.191 14.88 8.522 18.499 14.778" stroke="#2FDBBC" stroke-width="2" stroke-linecap="round" stroke-linejoin="round"/></g><path d="M43.456 88V54.256h6.528V88h-6.528zm21.168 0V54.256h6.528V88h-6.528zm-17.04-14.544v-5.76h18.864v5.76H47.584zm39.49 15.024c-2.112 0-4.016-.528-5.712-1.584-1.696-1.056-3.024-2.496-3.984-4.32-.96-1.824-1.44-3.872-1.44-6.144 0-2.304.48-4.368 1.44-6.192.96-1.824 2.288-3.264 3.984-4.32 1.696-1.056 3.6-1.584 5.712-1.584 1.664 0 3.152.336 4.464 1.008a7.845 7.845 0 0 1 3.12 2.832c.8 1.184 1.232 2.528 1.296 4.032v8.352c-.064 1.536-.496 2.896-1.296 4.08-.768 1.184-1.808 2.128-3.12 2.832-1.312.672-2.8 1.008-4.464 1.008zm1.152-5.808c1.76 0 3.184-.576 4.272-1.728 1.088-1.184 1.632-2.704 1.632-4.56 0-1.216-.256-2.288-.768-3.216-.48-.96-1.168-1.696-2.064-2.208-.864-.544-1.888-.816-3.072-.816-1.152 0-2.176.272-3.072.816-.864.512-1.552 1.248-2.064 2.208-.48.928-.72 2-.72 3.216 0 1.248.24 2.352.72 3.312a5.96 5.96 0 0 0 2.064 2.208c.896.512 1.92.768 3.072.768zM93.794 88v-6.24l1.008-5.664-1.008-5.568v-5.712h6.24V88h-6.24zm11.803 0V64.816h6.288V88h-6.288zm6.288-12.816-2.448-1.632c.288-2.848 1.12-5.088 2.496-6.72 1.376-1.664 3.36-2.496 5.952-2.496 1.12 0 2.128.192 3.024.576.896.352 1.712.944 2.448 1.776l-3.936 4.512a3.3 3.3 0 0 0-1.296-.864c-.48-.192-1.04-.288-1.68-.288-1.344 0-2.448.432-3.312 1.296-.832.832-1.248 2.112-1.248 3.84zM141.072 88V74.704c0-1.376-.432-2.496-1.296-3.36-.864-.864-1.984-1.296-3.36-1.296-.896 0-1.696.192-2.4.576a4.331 4.331 0 0 0-1.68 1.632c-.384.704-.576 1.52-.576 2.448l-2.448-1.248c0-1.824.384-3.408 1.152-4.752a8.515 8.515 0 0 1 3.264-3.216c1.408-.768 2.992-1.152 4.752-1.152 1.696 0 3.216.432 4.56 1.296a8.986 8.986 0 0 1 3.168 3.312 8.655 8.655 0 0 1 1.151 4.368V88h-6.287zm-15.6 0V64.816h6.288V88h-6.288zm38.041.48c-2.432 0-4.592-.512-6.48-1.536a12.182 12.182 0 0 1-4.512-4.32c-1.088-1.824-1.632-3.904-1.632-6.24 0-2.304.528-4.352 1.584-6.144a11.917 11.917 0 0 1 4.416-4.32c1.856-1.088 3.92-1.632 6.192-1.632 2.24 0 4.208.512 5.904 1.536a10.423 10.423 0 0 1 4.032 4.128c.992 1.728 1.488 3.696 1.488 5.904 0 .416-.032.848-.096 1.296a9.608 9.608 0 0 1-.24 1.44l-19.488.048v-4.704l16.56-.048-2.544 1.968c-.064-1.376-.32-2.528-.768-3.456-.416-.928-1.04-1.632-1.872-2.112-.8-.512-1.792-.768-2.976-.768-1.248 0-2.336.288-3.264.864-.928.544-1.648 1.328-2.16 2.352-.48.992-.72 2.176-.72 3.552 0 1.408.256 2.64.768 3.696a5.943 5.943 0 0 0 2.304 2.4c.992.544 2.144.816 3.456.816 1.184 0 2.256-.192 3.216-.576a6.995 6.995 0 0 0 2.496-1.824l3.696 3.696a10.699 10.699 0 0 1-4.128 2.976c-1.6.672-3.344 1.008-5.232 1.008zm22.848.048a14.6 14.6 0 0 1-3.888-.528 15.12 15.12 0 0 1-3.456-1.44 11.254 11.254 0 0 1-2.736-2.304l3.744-3.792a7.772 7.772 0 0 0 2.784 2.016c1.056.448 2.224.672 3.504.672 1.024 0 1.792-.144 2.304-.432.544-.288.816-.72.816-1.296 0-.64-.288-1.136-.864-1.488-.544-.352-1.264-.64-2.16-.864-.896-.256-1.84-.528-2.832-.816-.96-.32-1.888-.72-2.784-1.2a6.49 6.49 0 0 1-2.208-2.064c-.544-.896-.816-2.048-.816-3.456 0-1.472.352-2.752 1.056-3.84.736-1.088 1.776-1.936 3.12-2.544 1.344-.608 2.928-.912 4.752-.912 1.92 0 3.648.336 5.184 1.008a9.517 9.517 0 0 1 3.888 3.024l-3.792 3.792c-.704-.864-1.504-1.488-2.4-1.872-.864-.384-1.808-.576-2.832-.576-.928 0-1.648.144-2.16.432-.48.288-.72.688-.72 1.2 0 .576.272 1.024.816 1.344.576.32 1.312.608 2.208.864.896.224 1.824.496 2.784.816.992.288 1.92.704 2.784 1.248a6.342 6.342 0 0 1 2.16 2.16c.576.896.864 2.048.864 3.456 0 2.272-.816 4.08-2.448 5.424-1.632 1.312-3.856 1.968-6.672 1.968zm21.329 0a14.6 14.6 0 0 1-3.888-.528 15.12 15.12 0 0 1-3.456-1.44 11.254 11.254 0 0 1-2.736-2.304l3.744-3.792a7.772 7.772 0 0 0 2.784 2.016c1.056.448 2.224.672 3.504.672 1.024 0 1.792-.144 2.304-.432.544-.288.816-.72.816-1.296 0-.64-.288-1.136-.864-1.488-.544-.352-1.264-.64-2.16-.864-.896-.256-1.84-.528-2.832-.816-.96-.32-1.888-.72-2.784-1.2a6.49 6.49 0 0 1-2.208-2.064c-.544-.896-.816-2.048-.816-3.456 0-1.472.352-2.752 1.056-3.84.736-1.088 1.776-1.936 3.119-2.544 1.345-.608 2.929-.912 4.753-.912 1.92 0 3.648.336 5.184 1.008a9.517 9.517 0 0 1 3.888 3.024l-3.792 3.792c-.704-.864-1.504-1.488-2.4-1.872-.864-.384-1.808-.576-2.832-.576-.928 0-1.648.144-2.16.432-.48.288-.72.688-.72 1.2 0 .576.272 1.024.816 1.344.576.32 1.312.608 2.208.864.896.224 1.824.496 2.784.816.992.288 1.92.704 2.784 1.248a6.342 6.342 0 0 1 2.16 2.16c.576.896.864 2.048.864 3.456 0 2.272-.816 4.08-2.448 5.424-1.632 1.312-3.856 1.968-6.672 1.968zM233.833 88V55.168h6.288V88h-6.288zm-5.424-17.664v-5.52h17.136v5.52h-17.136zM264.681 88V74.704c0-1.376-.432-2.496-1.296-3.36-.864-.864-1.984-1.296-3.36-1.296-.896 0-1.696.192-2.4.576a4.331 4.331 0 0 0-1.68 1.632c-.384.704-.576 1.52-.576 2.448l-2.448-1.248c0-1.824.384-3.408 1.152-4.752a8.272 8.272 0 0 1 3.168-3.216c1.376-.768 2.944-1.152 4.704-1.152 1.76 0 3.312.384 4.656 1.152a8.272 8.272 0 0 1 3.216 3.168c.768 1.344 1.152 2.896 1.152 4.656V88h-6.288zm-15.6 0V53.296h6.288V88h-6.288zm38.041.48c-2.432 0-4.592-.512-6.48-1.536a12.182 12.182 0 0 1-4.512-4.32c-1.088-1.824-1.632-3.904-1.632-6.24 0-2.304.528-4.352 1.584-6.144a11.917 11.917 0 0 1 4.416-4.32c1.856-1.088 3.92-1.632 6.192-1.632 2.24 0 4.208.512 5.904 1.536a10.423 10.423 0 0 1 4.032 4.128c.992 1.728 1.488 3.696 1.488 5.904 0 .416-.032.848-.096 1.296a9.608 9.608 0 0 1-.24 1.44l-19.488.048v-4.704l16.56-.048-2.544 1.968c-.064-1.376-.32-2.528-.768-3.456-.416-.928-1.04-1.632-1.872-2.112-.8-.512-1.792-.768-2.976-.768-1.248 0-2.336.288-3.264.864-.928.544-1.648 1.328-2.16 2.352-.48.992-.72 2.176-.72 3.552 0 1.408.256 2.64.768 3.696a5.943 5.943 0 0 0 2.304 2.4c.992.544 2.144.816 3.456.816 1.184 0 2.256-.192 3.216-.576a6.995 6.995 0 0 0 2.496-1.824l3.696 3.696a10.699 10.699 0 0 1-4.128 2.976c-1.6.672-3.344 1.008-5.232 1.008zm37.12 0c-1.664 0-3.168-.336-4.512-1.008-1.344-.704-2.416-1.648-3.216-2.832-.8-1.184-1.232-2.544-1.296-4.08v-8.208c.064-1.536.496-2.896 1.296-4.08a8.986 8.986 0 0 1 3.216-2.88c1.344-.704 2.848-1.056 4.512-1.056 2.144 0 4.064.528 5.76 1.584 1.696 1.056 3.024 2.496 3.984 4.32.992 1.824 1.488 3.888 1.488 6.192 0 2.272-.496 4.32-1.488 6.144-.96 1.824-2.288 3.264-3.984 4.32-1.696 1.056-3.616 1.584-5.76 1.584zm-1.104-5.808c1.152 0 2.176-.256 3.072-.768a5.485 5.485 0 0 0 2.064-2.208c.512-.96.768-2.064.768-3.312 0-1.216-.256-2.288-.768-3.216-.48-.96-1.168-1.696-2.064-2.208-.896-.544-1.92-.816-3.072-.816-1.12 0-2.128.272-3.024.816-.896.512-1.6 1.248-2.112 2.208-.48.928-.72 2-.72 3.216 0 1.248.24 2.352.72 3.312a5.96 5.96 0 0 0 2.064 2.208c.896.512 1.92.768 3.072.768zm-11.76 15.024v-32.88h6.288v6.096l-1.056 5.616 1.008 5.616v15.552h-6.24zm39.115-9.216c-2.336 0-4.448-.528-6.336-1.584a12.688 12.688 0 0 1-4.464-4.368c-1.088-1.856-1.632-3.92-1.632-6.192 0-2.272.544-4.304 1.632-6.096 1.088-1.824 2.576-3.264 4.464-4.32 1.888-1.088 3.984-1.632 6.288-1.632 2.368 0 4.48.544 6.336 1.632 1.888 1.056 3.376 2.496 4.464 4.32 1.088 1.792 1.632 3.824 1.632 6.096 0 2.272-.544 4.336-1.632 6.192-1.088 1.824-2.576 3.28-4.464 4.368-1.856 1.056-3.952 1.584-6.288 1.584zm-.048-5.856c1.184 0 2.224-.256 3.12-.768a5.392 5.392 0 0 0 2.112-2.208c.512-.96.768-2.048.768-3.264 0-1.216-.256-2.288-.768-3.216a5.486 5.486 0 0 0-2.112-2.16c-.896-.544-1.936-.816-3.12-.816-1.152 0-2.176.272-3.072.816a5.486 5.486 0 0 0-2.112 2.16c-.512.928-.768 2-.768 3.216 0 1.216.256 2.304.768 3.264a5.834 5.834 0 0 0 2.112 2.208c.896.512 1.92.768 3.072.768zM372.601 88l-8.688-23.184h6.336l5.664 16.848-1.92.048 5.808-16.896h4.56l5.808 16.896-1.92-.048 5.664-16.848h6.336L391.609 88h-4.56l-5.856-16.032h1.776L377.113 88h-4.512zm41.271.48c-2.432 0-4.592-.512-6.48-1.536a12.182 12.182 0 0 1-4.512-4.32c-1.088-1.824-1.632-3.904-1.632-6.24 0-2.304.528-4.352 1.584-6.144a11.917 11.917 0 0 1 4.416-4.32c1.856-1.088 3.92-1.632 6.192-1.632 2.24 0 4.208.512 5.904 1.536a10.423 10.423 0 0 1 4.032 4.128c.992 1.728 1.488 3.696 1.488 5.904 0 .416-.032.848-.096 1.296a9.608 9.608 0 0 1-.24 1.44l-19.488.048v-4.704l16.56-.048-2.544 1.968c-.064-1.376-.32-2.528-.768-3.456-.416-.928-1.04-1.632-1.872-2.112-.8-.512-1.792-.768-2.976-.768-1.248 0-2.336.288-3.264.864-.928.544-1.648 1.328-2.16 2.352-.48.992-.72 2.176-.72 3.552 0 1.408.256 2.64.768 3.696a5.943 5.943 0 0 0 2.304 2.4c.992.544 2.144.816 3.456.816 1.184 0 2.256-.192 3.216-.576a6.995 6.995 0 0 0 2.496-1.824l3.696 3.696a10.699 10.699 0 0 1-4.128 2.976c-1.6.672-3.344 1.008-5.232 1.008zm14.881-.48V64.816h6.288V88h-6.288zm6.288-12.816-2.448-1.632c.288-2.848 1.12-5.088 2.496-6.72 1.376-1.664 3.36-2.496 5.952-2.496 1.12 0 2.128.192 3.024.576.896.352 1.712.944 2.448 1.776l-3.936 4.512a3.3 3.3 0 0 0-1.296-.864c-.48-.192-1.04-.288-1.68-.288-1.344 0-2.448.432-3.312 1.296-.832.832-1.248 2.112-1.248 3.84zM53.68 148.48c-2.336 0-4.448-.528-6.336-1.584a12.688 12.688 0 0 1-4.464-4.368c-1.088-1.856-1.632-3.92-1.632-6.192 0-2.272.544-4.304 1.632-6.096 1.088-1.824 2.576-3.264 4.464-4.32 1.888-1.088 3.984-1.632 6.288-1.632 2.368 0 4.48.544 6.336 1.632 1.888 1.056 3.376 2.496 4.464 4.32 1.088 1.792 1.632 3.824 1.632 6.096 0 2.272-.544 4.336-1.632 6.192-1.088 1.824-2.576 3.28-4.464 4.368-1.856 1.056-3.952 1.584-6.288 1.584zm-.048-5.856c1.184 0 2.224-.256 3.12-.768a5.392 5.392 0 0 0 2.112-2.208c.512-.96.768-2.048.768-3.264 0-1.216-.256-2.288-.768-3.216a5.486 5.486 0 0 0-2.112-2.16c-.896-.544-1.936-.816-3.12-.816-1.152 0-2.176.272-3.072.816a5.486 5.486 0 0 0-2.112 2.16c-.512.928-.768 2-.768 3.216 0 1.216.256 2.304.768 3.264a5.834 5.834 0 0 0 2.112 2.208c.896.512 1.92.768 3.072.768zM72.622 148v-25.68c0-1.856.4-3.488 1.2-4.896.8-1.44 1.936-2.576 3.408-3.408 1.472-.832 3.2-1.248 5.184-1.248 1.504 0 2.8.256 3.888.768a9.901 9.901 0 0 1 2.928 2.112l-3.984 4.032a3.994 3.994 0 0 0-1.152-.816c-.416-.192-.944-.288-1.584-.288-1.152 0-2.048.32-2.688.96-.608.608-.912 1.488-.912 2.64V148h-6.288zm-5.376-17.664v-5.52h18.528v5.52H67.246zm44.652 18.144c-1.664 0-3.168-.352-4.512-1.056-1.344-.704-2.416-1.664-3.216-2.88-.8-1.216-1.232-2.576-1.296-4.08v-8.256c.064-1.504.496-2.848 1.296-4.032a8.479 8.479 0 0 1 3.264-2.832c1.344-.672 2.832-1.008 4.464-1.008 2.144 0 4.064.528 5.76 1.584 1.696 1.056 3.024 2.496 3.984 4.32.992 1.824 1.488 3.888 1.488 6.192 0 2.272-.496 4.32-1.488 6.144-.96 1.824-2.288 3.264-3.984 4.32-1.696 1.056-3.616 1.584-5.76 1.584zm-1.056-5.808c1.152 0 2.16-.256 3.024-.768a5.485 5.485 0 0 0 2.064-2.208c.512-.96.768-2.064.768-3.312 0-1.216-.256-2.288-.768-3.216-.48-.96-1.168-1.696-2.064-2.208-.896-.544-1.92-.816-3.072-.816-1.152 0-2.176.272-3.072.816-.864.512-1.552 1.248-2.064 2.208-.48.928-.72 2-.72 3.216 0 1.248.24 2.352.72 3.312a5.834 5.834 0 0 0 2.112 2.208c.896.512 1.92.768 3.072.768zM99.034 148v-34.704h6.288v17.232l-1.056 5.568 1.008 5.664V148h-6.24zm38.107.48c-2.048 0-3.872-.432-5.472-1.296a9.516 9.516 0 0 1-3.696-3.6c-.896-1.536-1.344-3.312-1.344-5.328v-13.44h6.336v13.296c0 .96.16 1.792.48 2.496.32.672.8 1.184 1.44 1.536.64.352 1.392.528 2.256.528 1.312 0 2.336-.4 3.072-1.2.736-.8 1.104-1.92 1.104-3.36v-13.296h6.288v13.44c0 2.048-.448 3.84-1.344 5.376-.864 1.536-2.096 2.736-3.696 3.6-1.568.832-3.376 1.248-5.424 1.248zm22.767-.288-9.696-23.376h6.816l6.432 17.856h-2.304l6.672-17.856h6.864l-10.32 23.328-4.464.048zm-6.432 9.504 7.056-14.928 3.84 5.376-4.224 9.552h-6.672zM177.222 148v-23.184h6.336V148h-6.336zm3.168-26.928c-1.024 0-1.872-.336-2.544-1.008-.672-.704-1.008-1.568-1.008-2.592 0-.992.336-1.84 1.008-2.544.672-.704 1.52-1.056 2.544-1.056 1.056 0 1.904.352 2.544 1.056.672.704 1.008 1.552 1.008 2.544 0 1.024-.336 1.888-1.008 2.592-.64.672-1.488 1.008-2.544 1.008zM204.728 148v-13.296c0-1.376-.432-2.496-1.296-3.36-.864-.864-1.984-1.296-3.36-1.296-.896 0-1.696.192-2.4.576a4.331 4.331 0 0 0-1.68 1.632c-.384.704-.576 1.52-.576 2.448l-2.448-1.248c0-1.824.384-3.408 1.152-4.752a8.515 8.515 0 0 1 3.264-3.216c1.408-.768 2.992-1.152 4.752-1.152 1.696 0 3.216.432 4.56 1.296a8.986 8.986 0 0 1 3.168 3.312 8.655 8.655 0 0 1 1.152 4.368V148h-6.288zm-15.6 0v-23.184h6.288V148h-6.288zm36.649 10.272c-2.464 0-4.64-.448-6.528-1.344-1.888-.864-3.392-2.096-4.512-3.696l3.984-3.984c.896 1.056 1.888 1.856 2.976 2.4 1.12.576 2.464.864 4.032.864 1.952 0 3.488-.496 4.608-1.488 1.152-.992 1.728-2.368 1.728-4.128v-5.808l1.056-5.088-1.008-5.088v-6.096h6.24V146.8c0 2.304-.544 4.304-1.632 6-1.056 1.728-2.528 3.072-4.416 4.032-1.888.96-4.064 1.44-6.528 1.44zm-.288-10.896c-2.08 0-3.952-.496-5.616-1.488-1.664-1.024-2.976-2.416-3.936-4.176-.928-1.76-1.392-3.728-1.392-5.904 0-2.176.464-4.128 1.392-5.856.96-1.728 2.272-3.088 3.936-4.08 1.664-1.024 3.536-1.536 5.616-1.536 1.728 0 3.248.336 4.56 1.008 1.344.672 2.4 1.6 3.168 2.784.768 1.152 1.184 2.512 1.248 4.08v7.296c-.064 1.536-.496 2.912-1.296 4.128-.768 1.184-1.824 2.112-3.168 2.784-1.312.64-2.816.96-4.512.96zm1.248-5.712c1.152 0 2.144-.24 2.976-.72a5.427 5.427 0 0 0 2.016-2.064c.48-.896.72-1.904.72-3.024 0-1.152-.24-2.16-.72-3.024a5.091 5.091 0 0 0-2.016-2.016c-.832-.512-1.824-.768-2.976-.768s-2.16.256-3.024.768a5.014 5.014 0 0 0-2.016 2.064c-.48.864-.72 1.856-.72 2.976 0 1.088.24 2.08.72 2.976a5.427 5.427 0 0 0 2.016 2.064c.864.512 1.872.768 3.024.768zM253.253 148v-23.184h6.336V148h-6.336zm3.168-26.928c-1.024 0-1.872-.336-2.544-1.008-.672-.704-1.008-1.568-1.008-2.592 0-.992.336-1.84 1.008-2.544.672-.704 1.52-1.056 2.544-1.056 1.056 0 1.904.352 2.544 1.056.672.704 1.008 1.552 1.008 2.544 0 1.024-.336 1.888-1.008 2.592-.64.672-1.488 1.008-2.544 1.008zM280.759 148v-13.296c0-1.376-.432-2.496-1.296-3.36-.864-.864-1.984-1.296-3.36-1.296-.896 0-1.696.192-2.4.576a4.331 4.331 0 0 0-1.68 1.632c-.384.704-.576 1.52-.576 2.448l-2.448-1.248c0-1.824.384-3.408 1.152-4.752a8.515 8.515 0 0 1 3.264-3.216c1.408-.768 2.992-1.152 4.752-1.152 1.696 0 3.216.432 4.56 1.296a8.986 8.986 0 0 1 3.168 3.312 8.655 8.655 0 0 1 1.152 4.368V148h-6.288zm-15.6 0v-23.184h6.288V148h-6.288zm49.192.48c-1.664 0-3.168-.352-4.512-1.056-1.344-.704-2.416-1.664-3.216-2.88-.8-1.216-1.232-2.576-1.296-4.08v-8.256c.064-1.504.496-2.848 1.296-4.032a8.479 8.479 0 0 1 3.264-2.832c1.344-.672 2.832-1.008 4.464-1.008 2.144 0 4.064.528 5.76 1.584 1.696 1.056 3.024 2.496 3.984 4.32.992 1.824 1.488 3.888 1.488 6.192 0 2.272-.496 4.32-1.488 6.144-.96 1.824-2.288 3.264-3.984 4.32-1.696 1.056-3.616 1.584-5.76 1.584zm-1.056-5.808c1.152 0 2.16-.256 3.024-.768a5.485 5.485 0 0 0 2.064-2.208c.512-.96.768-2.064.768-3.312 0-1.216-.256-2.288-.768-3.216-.48-.96-1.168-1.696-2.064-2.208-.896-.544-1.92-.816-3.072-.816-1.152 0-2.176.272-3.072.816-.864.512-1.552 1.248-2.064 2.208-.48.928-.72 2-.72 3.216 0 1.248.24 2.352.72 3.312a5.834 5.834 0 0 0 2.112 2.208c.896.512 1.92.768 3.072.768zM301.487 148v-34.704h6.288v17.232l-1.056 5.568 1.008 5.664V148h-6.24zm38.107.48c-2.048 0-3.872-.432-5.472-1.296a9.516 9.516 0 0 1-3.696-3.6c-.896-1.536-1.344-3.312-1.344-5.328v-13.44h6.336v13.296c0 .96.16 1.792.48 2.496.32.672.8 1.184 1.44 1.536.64.352 1.392.528 2.256.528 1.312 0 2.336-.4 3.072-1.2.736-.8 1.104-1.92 1.104-3.36v-13.296h6.288v13.44c0 2.048-.448 3.84-1.344 5.376-.864 1.536-2.096 2.736-3.696 3.6-1.568.832-3.376 1.248-5.424 1.248zm15.471-.48v-34.704h6.288V148h-6.288zm26.644 0-8.976-11.952 8.928-11.232h7.248l-10.464 12.672.24-3.072L389.389 148h-7.68zm-14.784 0v-34.704h6.288V148h-6.288zM47.92 199.2c-.973 0-1.887-.18-2.74-.54a7.137 7.137 0 0 1-2.22-1.54 7.302 7.302 0 0 1-1.48-2.28c-.36-.867-.54-1.8-.54-2.8 0-1 .18-1.927.54-2.78.36-.867.86-1.627 1.5-2.28a6.811 6.811 0 0 1 2.24-1.52 7.278 7.278 0 0 1 2.82-.54c1.107 0 2.127.213 3.06.64a6.21 6.21 0 0 1 2.34 1.84l-1.3 1.3a4.22 4.22 0 0 0-1.74-1.46 5.364 5.364 0 0 0-2.36-.52c-1.013 0-1.913.227-2.7.68a4.837 4.837 0 0 0-1.82 1.88c-.427.8-.64 1.72-.64 2.76 0 1.053.22 1.98.66 2.78a4.93 4.93 0 0 0 1.78 1.88c.747.453 1.6.68 2.56.68.973 0 1.813-.187 2.52-.56a3.863 3.863 0 0 0 1.66-1.64c.387-.733.58-1.627.58-2.68l1.14.82h-6v-1.72h6.8v.28c0 1.613-.287 2.967-.86 4.06-.56 1.08-1.347 1.893-2.36 2.44-1 .547-2.147.82-3.44.82zm13.269 0c-.947 0-1.8-.213-2.56-.64a4.902 4.902 0 0 1-1.8-1.78c-.44-.747-.66-1.593-.66-2.54 0-.933.213-1.773.64-2.52a4.842 4.842 0 0 1 1.76-1.76c.746-.44 1.58-.66 2.5-.66.88 0 1.653.2 2.32.6.68.4 1.206.953 1.58 1.66.386.707.58 1.507.58 2.4 0 .133-.007.28-.02.44-.014.147-.04.32-.08.52h-8.02v-1.5h7.06l-.66.58c0-.64-.114-1.18-.34-1.62a2.424 2.424 0 0 0-.96-1.04c-.414-.253-.914-.38-1.5-.38-.614 0-1.154.133-1.62.4-.467.267-.827.64-1.08 1.12-.254.48-.38 1.047-.38 1.7 0 .667.133 1.253.4 1.76.266.493.646.88 1.14 1.16.493.267 1.06.4 1.7.4.533 0 1.02-.093 1.46-.28a3.03 3.03 0 0 0 1.16-.84l1.16 1.18a4.416 4.416 0 0 1-1.68 1.22c-.654.28-1.354.42-2.1.42zm7.49-.2v-13.48h1.8V199h-1.8zm-2.34-7.86v-1.64h6.48v1.64h-6.48zm16.443 8.06a4.474 4.474 0 0 1-2.36-.64 4.788 4.788 0 0 1-1.68-1.78c-.4-.747-.6-1.587-.6-2.52s.2-1.773.6-2.52a4.844 4.844 0 0 1 1.66-1.78c.707-.44 1.5-.66 2.38-.66.72 0 1.36.153 1.92.46a3.539 3.539 0 0 1 1.38 1.24c.347.52.54 1.127.58 1.82v2.86a3.674 3.674 0 0 1-.58 1.82 3.546 3.546 0 0 1-1.36 1.26c-.56.293-1.207.44-1.94.44zm.3-1.7c.893 0 1.613-.3 2.16-.9.546-.613.82-1.393.82-2.34 0-.653-.127-1.22-.38-1.7a2.62 2.62 0 0 0-1.04-1.14c-.453-.28-.98-.42-1.58-.42-.6 0-1.133.14-1.6.42-.454.28-.814.667-1.08 1.16-.254.48-.38 1.033-.38 1.66 0 .64.127 1.207.38 1.7.266.48.633.86 1.1 1.14.466.28 1 .42 1.6.42zm2.86 1.5v-2.56l.34-2.32-.34-2.3v-2.32h1.82v9.5h-1.82zm5.861 0v-13.48h1.8V199h-1.8zm-2.34-7.86v-1.64h6.48v1.64h-6.48zm12.404 7.86v-14.28h1.8V199h-1.8zm8.833.2c-.946 0-1.8-.213-2.56-.64a4.902 4.902 0 0 1-1.8-1.78c-.44-.747-.66-1.593-.66-2.54 0-.933.214-1.773.64-2.52a4.845 4.845 0 0 1 1.76-1.76c.747-.44 1.58-.66 2.5-.66.88 0 1.654.2 2.32.6.68.4 1.207.953 1.58 1.66.387.707.58 1.507.58 2.4 0 .133-.006.28-.02.44-.013.147-.04.32-.08.52h-8.02v-1.5H114l-.66.58c0-.64-.113-1.18-.34-1.62a2.415 2.415 0 0 0-.96-1.04c-.413-.253-.913-.38-1.5-.38-.613 0-1.153.133-1.62.4-.466.267-.826.64-1.08 1.12-.253.48-.38 1.047-.38 1.7 0 .667.134 1.253.4 1.76.267.493.647.88 1.14 1.16.494.267 1.06.4 1.7.4.534 0 1.02-.093 1.46-.28.454-.187.84-.467 1.16-.84l1.16 1.18a4.41 4.41 0 0 1-1.68 1.22c-.653.28-1.353.42-2.1.42zm10.363 0a4.474 4.474 0 0 1-2.36-.64 4.783 4.783 0 0 1-1.68-1.78c-.4-.747-.6-1.587-.6-2.52s.2-1.773.6-2.52a4.845 4.845 0 0 1 1.66-1.78c.707-.44 1.5-.66 2.38-.66.72 0 1.36.153 1.92.46a3.543 3.543 0 0 1 1.38 1.24c.347.52.54 1.127.58 1.82v2.86a3.67 3.67 0 0 1-.58 1.82 3.545 3.545 0 0 1-1.36 1.26c-.56.293-1.207.44-1.94.44zm.3-1.7c.893 0 1.613-.3 2.16-.9.547-.613.82-1.393.82-2.34 0-.653-.127-1.22-.38-1.7a2.62 2.62 0 0 0-1.04-1.14c-.453-.28-.98-.42-1.58-.42-.6 0-1.133.14-1.6.42a3.03 3.03 0 0 0-1.08 1.16c-.253.48-.38 1.033-.38 1.66 0 .64.127 1.207.38 1.7.267.48.633.86 1.1 1.14.467.28 1 .42 1.6.42zm2.86 1.5v-2.56l.34-2.32-.34-2.3v-2.32h1.82v9.5h-1.82zm7.461.2c-.534 0-1.04-.067-1.52-.2a5.52 5.52 0 0 1-1.3-.6 4.68 4.68 0 0 1-1.04-.94l1.16-1.16c.346.427.746.747 1.2.96.453.2.96.3 1.52.3s.993-.093 1.3-.28c.306-.2.46-.473.46-.82s-.127-.613-.38-.8c-.24-.2-.554-.36-.94-.48-.387-.133-.8-.26-1.24-.38a7.487 7.487 0 0 1-1.22-.5 2.71 2.71 0 0 1-.96-.82c-.24-.347-.36-.807-.36-1.38 0-.573.14-1.067.42-1.48.28-.427.666-.753 1.16-.98.506-.227 1.113-.34 1.82-.34.746 0 1.406.133 1.98.4.586.253 1.066.64 1.44 1.16l-1.16 1.16a2.667 2.667 0 0 0-1-.8 2.996 2.996 0 0 0-1.32-.28c-.52 0-.92.093-1.2.28a.831.831 0 0 0-.4.74c0 .32.12.567.36.74.24.173.553.32.94.44.4.12.813.247 1.24.38.426.12.833.287 1.22.5.386.213.7.5.94.86.253.36.38.833.38 1.42 0 .893-.32 1.6-.96 2.12-.627.52-1.474.78-2.54.78zm6.975-.2v-13.48h1.8V199h-1.8zm-2.34-7.86v-1.64h6.48v1.64h-6.48zm11.743 6.72 5.12-5.4c.52-.533.927-.993 1.22-1.38.294-.4.5-.767.62-1.1.134-.333.2-.68.2-1.04 0-.707-.226-1.26-.68-1.66-.453-.4-1.04-.6-1.76-.6-.706 0-1.326.173-1.86.52-.533.333-1.006.853-1.42 1.56l-1.32-1.1c.547-.907 1.207-1.587 1.98-2.04.774-.467 1.667-.7 2.68-.7.854 0 1.594.167 2.22.5.64.333 1.134.8 1.48 1.4.347.6.52 1.3.52 2.1 0 .573-.073 1.087-.22 1.54-.133.453-.38.92-.74 1.4-.346.467-.833 1.027-1.46 1.68l-4.14 4.26-2.44.06zm0 1.14v-1.14l1.6-.54h7.72V199h-9.32zm21.181 0-4.36-6.36h-.34l-5.48-7.52h2.24l4.32 5.98h.34l5.48 7.9h-2.2zm-10.42 0 5.38-7.38 1.28 1.12-4.54 6.26h-2.12zm7.26-6.7-1.26-1.12 4.28-6.06h2.12l-5.14 7.18zm11.448 6.7v-9.5h1.8v9.5h-1.8zm6.42 0v-5.74c0-.707-.22-1.26-.66-1.66-.427-.413-.967-.62-1.62-.62-.44 0-.833.093-1.18.28a2.247 2.247 0 0 0-.84.78c-.213.333-.32.733-.32 1.2l-.74-.36c0-.72.153-1.347.46-1.88.32-.533.753-.947 1.3-1.24a3.693 3.693 0 0 1 1.84-.46c.667 0 1.267.147 1.8.44.547.293.973.707 1.28 1.24.32.533.48 1.167.48 1.9V199h-1.8zm6.42 0v-5.74c0-.707-.22-1.26-.66-1.66-.427-.413-.96-.62-1.6-.62-.44 0-.84.093-1.2.28a2.247 2.247 0 0 0-.84.78c-.213.333-.32.733-.32 1.2l-1.02-.36c.04-.733.233-1.36.58-1.88.36-.533.82-.947 1.38-1.24a3.764 3.764 0 0 1 1.84-.46c.693 0 1.313.147 1.86.44.547.293.98.707 1.3 1.24.333.533.5 1.173.5 1.92v6.1h-1.82zm8.609.2c-.933 0-1.773-.22-2.52-.66a4.954 4.954 0 0 1-1.78-1.78c-.44-.76-.66-1.607-.66-2.54 0-.92.22-1.747.66-2.48a4.954 4.954 0 0 1 1.78-1.78c.747-.44 1.587-.66 2.52-.66.92 0 1.754.22 2.5.66a4.753 4.753 0 0 1 1.8 1.76c.44.747.66 1.58.66 2.5 0 .933-.22 1.78-.66 2.54a4.902 4.902 0 0 1-1.8 1.78c-.746.44-1.58.66-2.5.66zm0-1.74c.6 0 1.134-.14 1.6-.42.467-.28.834-.66 1.1-1.14.267-.493.4-1.053.4-1.68 0-.613-.14-1.16-.42-1.64a2.862 2.862 0 0 0-1.1-1.12c-.453-.28-.98-.42-1.58-.42-.6 0-1.133.14-1.6.42-.466.267-.833.64-1.1 1.12-.266.48-.4 1.027-.4 1.64 0 .627.134 1.187.4 1.68.267.48.634.86 1.1 1.14.467.28 1 .42 1.6.42zm6.988 1.54v-9.5h1.8v9.5h-1.8zm1.8-5.42-.68-.3c0-1.213.28-2.18.84-2.9.56-.72 1.367-1.08 2.42-1.08.48 0 .914.087 1.3.26.387.16.747.433 1.08.82l-1.18 1.22c-.2-.213-.42-.367-.66-.46-.24-.093-.52-.14-.84-.14-.666 0-1.213.213-1.64.64-.426.427-.64 1.073-.64 1.94zm10.315 5.62c-.946 0-1.8-.213-2.56-.64a4.902 4.902 0 0 1-1.8-1.78c-.44-.747-.66-1.593-.66-2.54 0-.933.214-1.773.64-2.52a4.845 4.845 0 0 1 1.76-1.76c.747-.44 1.58-.66 2.5-.66.88 0 1.654.2 2.32.6.68.4 1.207.953 1.58 1.66.387.707.58 1.507.58 2.4 0 .133-.006.28-.02.44-.013.147-.04.32-.08.52h-8.02v-1.5h7.06l-.66.58c0-.64-.113-1.18-.34-1.62a2.415 2.415 0 0 0-.96-1.04c-.413-.253-.913-.38-1.5-.38-.613 0-1.153.133-1.62.4-.466.267-.826.64-1.08 1.12-.253.48-.38 1.047-.38 1.7 0 .667.134 1.253.4 1.76.267.493.647.88 1.14 1.16.494.267 1.06.4 1.7.4.534 0 1.02-.093 1.46-.28.454-.187.84-.467 1.16-.84l1.16 1.18a4.41 4.41 0 0 1-1.68 1.22c-.653.28-1.353.42-2.1.42zm13.503 0a5.67 5.67 0 0 1-1.52-.2 5.52 5.52 0 0 1-1.3-.6 4.68 4.68 0 0 1-1.04-.94l1.16-1.16c.347.427.747.747 1.2.96.453.2.96.3 1.52.3s.993-.093 1.3-.28c.307-.2.46-.473.46-.82s-.127-.613-.38-.8c-.24-.2-.553-.36-.94-.48-.387-.133-.8-.26-1.24-.38a7.524 7.524 0 0 1-1.22-.5 2.71 2.71 0 0 1-.96-.82c-.24-.347-.36-.807-.36-1.38 0-.573.14-1.067.42-1.48.28-.427.667-.753 1.16-.98.507-.227 1.113-.34 1.82-.34.747 0 1.407.133 1.98.4.587.253 1.067.64 1.44 1.16l-1.16 1.16a2.667 2.667 0 0 0-1-.8 2.996 2.996 0 0 0-1.32-.28c-.52 0-.92.093-1.2.28a.831.831 0 0 0-.4.74c0 .32.12.567.36.74.24.173.553.32.94.44.4.12.813.247 1.24.38.427.12.833.287 1.22.5.387.213.7.5.94.86.253.36.38.833.38 1.42 0 .893-.32 1.6-.96 2.12-.627.52-1.473.78-2.54.78zm9.555 0a4.477 4.477 0 0 1-2.36-.64 4.8 4.8 0 0 1-1.68-1.78c-.4-.747-.6-1.587-.6-2.52s.2-1.773.6-2.52a4.853 4.853 0 0 1 1.66-1.78c.707-.44 1.5-.66 2.38-.66.72 0 1.36.153 1.92.46a3.53 3.53 0 0 1 1.38 1.24c.347.52.54 1.127.58 1.82v2.86a3.67 3.67 0 0 1-.58 1.82 3.538 3.538 0 0 1-1.36 1.26c-.56.293-1.206.44-1.94.44zm.3-1.7c.894 0 1.614-.3 2.16-.9.547-.613.82-1.393.82-2.34 0-.653-.126-1.22-.38-1.7a2.615 2.615 0 0 0-1.04-1.14c-.453-.28-.98-.42-1.58-.42-.6 0-1.133.14-1.6.42a3.03 3.03 0 0 0-1.08 1.16c-.253.48-.38 1.033-.38 1.66 0 .64.127 1.207.38 1.7.267.48.634.86 1.1 1.14.467.28 1 .42 1.6.42zm2.86 1.5v-2.56l.34-2.32-.34-2.3v-2.32h1.82v9.5h-1.82zm4.441 0v-14.28h1.8V199h-1.8zm8.833.2c-.946 0-1.8-.213-2.56-.64a4.902 4.902 0 0 1-1.8-1.78c-.44-.747-.66-1.593-.66-2.54 0-.933.214-1.773.64-2.52a4.845 4.845 0 0 1 1.76-1.76c.747-.44 1.58-.66 2.5-.66.88 0 1.654.2 2.32.6.68.4 1.207.953 1.58 1.66.387.707.58 1.507.58 2.4 0 .133-.006.28-.02.44-.013.147-.04.32-.08.52h-8.02v-1.5h7.06l-.66.58c0-.64-.113-1.18-.34-1.62a2.415 2.415 0 0 0-.96-1.04c-.413-.253-.913-.38-1.5-.38-.613 0-1.153.133-1.62.4-.466.267-.826.64-1.08 1.12-.253.48-.38 1.047-.38 1.7 0 .667.134 1.253.4 1.76.267.493.647.88 1.14 1.16.494.267 1.06.4 1.7.4.534 0 1.02-.093 1.46-.28.454-.187.84-.467 1.16-.84l1.16 1.18a4.41 4.41 0 0 1-1.68 1.22c-.653.28-1.353.42-2.1.42zm9.343 0a5.67 5.67 0 0 1-1.52-.2 5.52 5.52 0 0 1-1.3-.6 4.68 4.68 0 0 1-1.04-.94l1.16-1.16c.347.427.747.747 1.2.96.453.2.96.3 1.52.3s.993-.093 1.3-.28c.307-.2.46-.473.46-.82s-.127-.613-.38-.8c-.24-.2-.553-.36-.94-.48-.387-.133-.8-.26-1.24-.38a7.524 7.524 0 0 1-1.22-.5 2.71 2.71 0 0 1-.96-.82c-.24-.347-.36-.807-.36-1.38 0-.573.14-1.067.42-1.48.28-.427.667-.753 1.16-.98.507-.227 1.113-.34 1.82-.34.747 0 1.407.133 1.98.4.587.253 1.067.64 1.44 1.16l-1.16 1.16a2.667 2.667 0 0 0-1-.8 2.996 2.996 0 0 0-1.32-.28c-.52 0-.92.093-1.2.28a.831.831 0 0 0-.4.74c0 .32.12.567.36.74.24.173.553.32.94.44.4.12.813.247 1.24.38.427.12.833.287 1.22.5.387.213.7.5.94.86.253.36.38.833.38 1.42 0 .893-.32 1.6-.96 2.12-.627.52-1.473.78-2.54.78zm12.395-.2-3.76-9.5h1.88l2.72 7.4h-.6l2.7-7.4h1.04l2.7 7.4h-.6l2.72-7.4h1.88l-3.74 9.5h-1.06l-2.74-7.18h.66l-2.76 7.18h-1.04zm12.144 0v-9.5h1.8v9.5h-1.8zm.9-11.4c-.333 0-.606-.107-.82-.32a1.181 1.181 0 0 1-.32-.84c0-.32.107-.587.32-.8.214-.227.487-.34.82-.34.334 0 .607.113.82.34.214.213.32.48.32.8 0 .333-.106.613-.32.84-.213.213-.486.32-.82.32zm5.013 11.4v-13.48h1.8V199h-1.8zm-2.34-7.86v-1.64h6.48v1.64h-6.48zm14.963 7.86v-5.54c0-.72-.227-1.313-.68-1.78-.453-.467-1.04-.7-1.76-.7-.48 0-.907.107-1.28.32a2.324 2.324 0 0 0-.88.88c-.213.373-.32.8-.32 1.28l-.74-.42c0-.72.16-1.36.48-1.92.32-.56.767-1 1.34-1.32.573-.333 1.22-.5 1.94-.5s1.353.16 1.9.48c.56.32 1 .767 1.32 1.34.32.573.48 1.233.48 1.98v5.9h-1.8zm-6.72 0v-14.28h1.8V199h-1.8zm16.697 0v-1.64h4.2c.8 0 1.427-.233 1.88-.7.454-.48.68-1.053.68-1.72 0-.453-.1-.86-.3-1.22a2.15 2.15 0 0 0-.88-.88c-.373-.213-.813-.32-1.32-.32h-4.26v-1.64h3.98c.667 0 1.194-.173 1.58-.52.4-.36.6-.873.6-1.54s-.206-1.173-.62-1.52c-.413-.36-.96-.54-1.64-.54h-3.9v-1.64h3.94c.907 0 1.66.167 2.26.5.614.32 1.074.747 1.38 1.28.32.533.48 1.12.48 1.76 0 .747-.206 1.4-.62 1.96-.4.56-.993 1-1.78 1.32l.16-.6c.894.32 1.587.807 2.08 1.46.507.64.76 1.4.76 2.28 0 .733-.18 1.393-.54 1.98-.36.587-.88 1.06-1.56 1.42-.666.347-1.486.52-2.46.52h-4.1zm-1.26 0v-13.88h1.88V199h-1.88zm15.961.2c-.773 0-1.473-.173-2.1-.52a3.842 3.842 0 0 1-1.44-1.48c-.346-.627-.52-1.353-.52-2.18v-5.52h1.8v5.44c0 .52.087.973.26 1.36.187.373.454.66.8.86.347.2.754.3 1.22.3.707 0 1.26-.22 1.66-.66.4-.453.6-1.073.6-1.86v-5.44h1.8v5.52c0 .827-.173 1.553-.52 2.18a3.828 3.828 0 0 1-1.44 1.48c-.6.347-1.306.52-2.12.52zm10.513 0c-.88 0-1.667-.213-2.36-.64a4.837 4.837 0 0 1-1.66-1.78c-.4-.747-.6-1.587-.6-2.52s.2-1.773.6-2.52a4.837 4.837 0 0 1 1.66-1.78c.693-.44 1.48-.66 2.36-.66.706 0 1.346.153 1.92.46a3.543 3.543 0 0 1 1.38 1.24c.36.52.56 1.127.6 1.82v2.86a3.68 3.68 0 0 1-.58 1.82 3.705 3.705 0 0 1-1.38 1.26c-.574.293-1.22.44-1.94.44zm.3-1.7c.6 0 1.12-.14 1.56-.42.453-.28.806-.66 1.06-1.14.253-.493.38-1.053.38-1.68 0-.653-.134-1.22-.4-1.7a2.918 2.918 0 0 0-1.06-1.14c-.44-.28-.96-.42-1.56-.42-.6 0-1.127.14-1.58.42-.454.28-.814.667-1.08 1.16-.254.48-.38 1.033-.38 1.66 0 .64.126 1.207.38 1.7.266.48.626.86 1.08 1.14.466.28 1 .42 1.6.42zm4.7 1.5h-1.82v-2.56l.34-2.32-.34-2.3v-7.1h1.82V199zm5.64.2a5.67 5.67 0 0 1-1.52-.2 5.538 5.538 0 0 1-1.3-.6c-.4-.267-.746-.58-1.04-.94l1.16-1.16c.347.427.747.747 1.2.96.454.2.96.3 1.52.3s.994-.093 1.3-.28c.307-.2.46-.473.46-.82s-.126-.613-.38-.8c-.24-.2-.553-.36-.94-.48-.386-.133-.8-.26-1.24-.38a7.56 7.56 0 0 1-1.22-.5 2.727 2.727 0 0 1-.96-.82c-.24-.347-.36-.807-.36-1.38 0-.573.14-1.067.42-1.48.28-.427.667-.753 1.16-.98.507-.227 1.114-.34 1.82-.34.747 0 1.407.133 1.98.4.587.253 1.067.64 1.44 1.16l-1.16 1.16a2.66 2.66 0 0 0-1-.8 2.99 2.99 0 0 0-1.32-.28c-.52 0-.92.093-1.2.28a.833.833 0 0 0-.4.74c0 .32.12.567.36.74.24.173.554.32.94.44.4.12.814.247 1.24.38.427.12.834.287 1.22.5.387.213.7.5.94.86.254.36.38.833.38 1.42 0 .893-.32 1.6-.96 2.12-.626.52-1.473.78-2.54.78zm8.536 0c-.534 0-1.04-.067-1.52-.2a5.52 5.52 0 0 1-1.3-.6 4.68 4.68 0 0 1-1.04-.94l1.16-1.16c.346.427.746.747 1.2.96.453.2.96.3 1.52.3s.993-.093 1.3-.28c.306-.2.46-.473.46-.82s-.127-.613-.38-.8c-.24-.2-.554-.36-.94-.48-.387-.133-.8-.26-1.24-.38a7.487 7.487 0 0 1-1.22-.5 2.71 2.71 0 0 1-.96-.82c-.24-.347-.36-.807-.36-1.38 0-.573.14-1.067.42-1.48.28-.427.666-.753 1.16-.98.506-.227 1.113-.34 1.82-.34.746 0 1.406.133 1.98.4.586.253 1.066.64 1.44 1.16l-1.16 1.16a2.667 2.667 0 0 0-1-.8 2.996 2.996 0 0 0-1.32-.28c-.52 0-.92.093-1.2.28a.831.831 0 0 0-.4.74c0 .32.12.567.36.74.24.173.553.32.94.44.4.12.813.247 1.24.38.426.12.833.287 1.22.5.386.213.7.5.94.86.253.36.38.833.38 1.42 0 .893-.32 1.6-.96 2.12-.627.52-1.474.78-2.54.78zm11.255-.2v-1.64h4.2c.8 0 1.427-.233 1.88-.7.453-.48.68-1.053.68-1.72 0-.453-.1-.86-.3-1.22a2.15 2.15 0 0 0-.88-.88c-.373-.213-.813-.32-1.32-.32h-4.26v-1.64h3.98c.667 0 1.193-.173 1.58-.52.4-.36.6-.873.6-1.54s-.207-1.173-.62-1.52c-.413-.36-.96-.54-1.64-.54h-3.9v-1.64h3.94c.907 0 1.66.167 2.26.5.613.32 1.073.747 1.38 1.28.32.533.48 1.12.48 1.76 0 .747-.207 1.4-.62 1.96-.4.56-.993 1-1.78 1.32l.16-.6c.893.32 1.587.807 2.08 1.46.507.64.76 1.4.76 2.28 0 .733-.18 1.393-.54 1.98-.36.587-.88 1.06-1.56 1.42-.667.347-1.487.52-2.46.52h-4.1zm-1.26 0v-13.88h1.88V199h-1.88zm15.961.2c-.774 0-1.474-.173-2.1-.52a3.828 3.828 0 0 1-1.44-1.48c-.347-.627-.52-1.353-.52-2.18v-5.52h1.8v5.44c0 .52.086.973.26 1.36.186.373.453.66.8.86.346.2.753.3 1.22.3.706 0 1.26-.22 1.66-.66.4-.453.6-1.073.6-1.86v-5.44h1.8v5.52c0 .827-.174 1.553-.52 2.18a3.842 3.842 0 0 1-1.44 1.48c-.6.347-1.307.52-2.12.52zm9.612-.12-4.12-9.58h2l3.06 7.5h-.64l3.22-7.5h2l-4.44 9.58h-1.08zm-2.72 3.9 2.8-5.74 1 1.84-1.8 3.9h-2zm9.62-3.98v-9.5h1.8v9.5h-1.8zm.9-11.4c-.333 0-.606-.107-.82-.32a1.181 1.181 0 0 1-.32-.84c0-.32.107-.587.32-.8.214-.227.487-.34.82-.34.334 0 .607.113.82.34.214.213.32.48.32.8 0 .333-.106.613-.32.84-.213.213-.486.32-.82.32zm10.273 11.4v-5.54c0-.72-.227-1.313-.68-1.78-.453-.467-1.04-.7-1.76-.7-.48 0-.907.107-1.28.32a2.324 2.324 0 0 0-.88.88c-.213.373-.32.8-.32 1.28l-.74-.42c0-.72.16-1.36.48-1.92.32-.56.767-1 1.34-1.32.573-.333 1.22-.5 1.94-.5s1.353.18 1.9.54c.56.36 1 .833 1.32 1.42.32.573.48 1.187.48 1.84v5.9h-1.8zm-6.72 0v-9.5h1.8v9.5h-1.8zm14.897 4.18c-.973 0-1.84-.18-2.6-.54a4.55 4.55 0 0 1-1.8-1.52l1.16-1.18c.387.493.847.867 1.38 1.12.533.267 1.167.4 1.9.4.973 0 1.74-.26 2.3-.78.573-.507.86-1.193.86-2.06v-2.36l.32-2.14-.32-2.12v-2.5h1.8v9.12c0 .907-.213 1.7-.64 2.38-.413.68-1 1.213-1.76 1.6-.747.387-1.613.58-2.6.58zm0-4.34c-.867 0-1.647-.207-2.34-.62a4.512 4.512 0 0 1-1.62-1.7c-.4-.733-.6-1.553-.6-2.46s.2-1.713.6-2.42c.4-.72.94-1.287 1.62-1.7.693-.427 1.473-.64 2.34-.64.747 0 1.407.147 1.98.44a3.394 3.394 0 0 1 1.36 1.24c.347.52.533 1.133.56 1.84v2.52c-.04.693-.233 1.307-.58 1.84a3.44 3.44 0 0 1-1.36 1.22c-.573.293-1.227.44-1.96.44zm.36-1.7c.587 0 1.1-.127 1.54-.38.453-.253.8-.607 1.04-1.06.24-.467.36-1.007.36-1.62 0-.613-.127-1.147-.38-1.6a2.57 2.57 0 0 0-1.02-1.08c-.44-.267-.96-.4-1.56-.4-.6 0-1.127.133-1.58.4a2.802 2.802 0 0 0-1.08 1.08c-.253.453-.38.98-.38 1.58 0 .6.127 1.133.38 1.6.267.467.627.833 1.08 1.1.467.253 1 .38 1.6.38zM47.92 223.2c-.973 0-1.887-.18-2.74-.54a7.137 7.137 0 0 1-2.22-1.54 7.302 7.302 0 0 1-1.48-2.28c-.36-.867-.54-1.8-.54-2.8 0-1 .18-1.927.54-2.78.36-.867.86-1.627 1.5-2.28a6.811 6.811 0 0 1 2.24-1.52 7.278 7.278 0 0 1 2.82-.54c1.107 0 2.127.213 3.06.64a6.21 6.21 0 0 1 2.34 1.84l-1.3 1.3a4.22 4.22 0 0 0-1.74-1.46 5.364 5.364 0 0 0-2.36-.52c-1.013 0-1.913.227-2.7.68a4.837 4.837 0 0 0-1.82 1.88c-.427.8-.64 1.72-.64 2.76 0 1.053.22 1.98.66 2.78a4.93 4.93 0 0 0 1.78 1.88c.747.453 1.6.68 2.56.68.973 0 1.813-.187 2.52-.56a3.863 3.863 0 0 0 1.66-1.64c.387-.733.58-1.627.58-2.68l1.14.82h-6v-1.72h6.8v.28c0 1.613-.287 2.967-.86 4.06-.56 1.08-1.347 1.893-2.36 2.44-1 .547-2.147.82-3.44.82zm8.869-.2v-9.5h1.8v9.5h-1.8zm1.8-5.42-.68-.3c0-1.213.28-2.18.84-2.9.56-.72 1.366-1.08 2.42-1.08.48 0 .913.087 1.3.26.386.16.746.433 1.08.82l-1.18 1.22c-.2-.213-.42-.367-.66-.46-.24-.093-.52-.14-.84-.14-.667 0-1.214.213-1.64.64-.427.427-.64 1.073-.64 1.94zm10.255 5.62c-.934 0-1.774-.22-2.52-.66a4.949 4.949 0 0 1-1.78-1.78c-.44-.76-.66-1.607-.66-2.54 0-.92.22-1.747.66-2.48a4.949 4.949 0 0 1 1.78-1.78c.746-.44 1.586-.66 2.52-.66.92 0 1.753.22 2.5.66a4.753 4.753 0 0 1 1.8 1.76c.44.747.66 1.58.66 2.5 0 .933-.22 1.78-.66 2.54a4.902 4.902 0 0 1-1.8 1.78c-.747.44-1.58.66-2.5.66zm0-1.74c.6 0 1.133-.14 1.6-.42.466-.28.833-.66 1.1-1.14.266-.493.4-1.053.4-1.68 0-.613-.14-1.16-.42-1.64a2.868 2.868 0 0 0-1.1-1.12c-.454-.28-.98-.42-1.58-.42-.6 0-1.134.14-1.6.42-.467.267-.834.64-1.1 1.12-.267.48-.4 1.027-.4 1.64 0 .627.133 1.187.4 1.68.266.48.633.86 1.1 1.14.466.28 1 .42 1.6.42zm10.808 1.74c-.774 0-1.474-.173-2.1-.52a3.838 3.838 0 0 1-1.44-1.48c-.347-.627-.52-1.353-.52-2.18v-5.52h1.8v5.44c0 .52.086.973.26 1.36.186.373.453.66.8.86.346.2.753.3 1.22.3.706 0 1.26-.22 1.66-.66.4-.453.6-1.073.6-1.86v-5.44h1.8v5.52c0 .827-.174 1.553-.52 2.18a3.837 3.837 0 0 1-1.44 1.48c-.6.347-1.307.52-2.12.52zm11.492 0c-.72 0-1.373-.147-1.96-.44a3.7 3.7 0 0 1-1.38-1.26 3.674 3.674 0 0 1-.58-1.82v-2.86c.04-.693.234-1.3.58-1.82.36-.533.827-.947 1.4-1.24a4.12 4.12 0 0 1 1.94-.46c.867 0 1.647.22 2.34.66a4.634 4.634 0 0 1 1.66 1.78c.4.747.6 1.587.6 2.52s-.2 1.773-.6 2.52c-.4.747-.953 1.34-1.66 1.78-.693.427-1.473.64-2.34.64zm-.3-1.7c.6 0 1.127-.14 1.58-.42a3.06 3.06 0 0 0 1.08-1.14c.267-.493.4-1.06.4-1.7 0-.627-.133-1.187-.4-1.68a2.878 2.878 0 0 0-1.08-1.14c-.453-.28-.973-.42-1.56-.42-.6 0-1.126.14-1.58.42a2.746 2.746 0 0 0-1.06 1.14c-.253.493-.38 1.06-.38 1.7 0 .627.12 1.187.36 1.68.254.48.607.86 1.06 1.14.467.28.994.42 1.58.42zm-4.7 5.48V213.5h1.8v2.5l-.34 2.3.34 2.32v6.36h-1.8zm14.661-3.78c-.533 0-1.04-.067-1.52-.2a5.527 5.527 0 0 1-1.3-.6 4.69 4.69 0 0 1-1.04-.94l1.16-1.16a3.41 3.41 0 0 0 1.2.96c.453.2.96.3 1.52.3s.993-.093 1.3-.28c.307-.2.46-.473.46-.82s-.127-.613-.38-.8c-.24-.2-.553-.36-.94-.48-.387-.133-.8-.26-1.24-.38a7.522 7.522 0 0 1-1.22-.5 2.717 2.717 0 0 1-.96-.82c-.24-.347-.36-.807-.36-1.38 0-.573.14-1.067.42-1.48a2.7 2.7 0 0 1 1.16-.98c.507-.227 1.113-.34 1.82-.34.747 0 1.407.133 1.98.4.587.253 1.067.64 1.44 1.16l-1.16 1.16a2.667 2.667 0 0 0-1-.8 2.996 2.996 0 0 0-1.32-.28c-.52 0-.92.093-1.2.28a.832.832 0 0 0-.4.74c0 .32.12.567.36.74.24.173.553.32.94.44.4.12.813.247 1.24.38.427.12.833.287 1.22.5.387.213.7.5.94.86.253.36.38.833.38 1.42 0 .893-.32 1.6-.96 2.12-.627.52-1.473.78-2.54.78zm7.095 0c-.373 0-.687-.127-.94-.38a1.36 1.36 0 0 1-.36-.94c0-.373.12-.68.36-.92.253-.253.567-.38.94-.38s.68.127.92.38c.253.24.38.547.38.92 0 .36-.127.673-.38.94-.24.253-.547.38-.92.38zm12.535-5.84-5.46-8.24h2.18l4.4 6.74h-.98l4.42-6.74h2.14l-5.5 8.24h-1.2zm-.32 5.64v-6.88h1.88V223h-1.88zm10.291.2c-.933 0-1.773-.22-2.52-.66a4.947 4.947 0 0 1-1.78-1.78c-.44-.76-.66-1.607-.66-2.54 0-.92.22-1.747.66-2.48a4.947 4.947 0 0 1 1.78-1.78c.747-.44 1.587-.66 2.52-.66.92 0 1.753.22 2.5.66a4.753 4.753 0 0 1 1.8 1.76c.44.747.66 1.58.66 2.5 0 .933-.22 1.78-.66 2.54a4.902 4.902 0 0 1-1.8 1.78c-.747.44-1.58.66-2.5.66zm0-1.74c.6 0 1.133-.14 1.6-.42.467-.28.833-.66 1.1-1.14.267-.493.4-1.053.4-1.68 0-.613-.14-1.16-.42-1.64a2.868 2.868 0 0 0-1.1-1.12c-.453-.28-.98-.42-1.58-.42-.6 0-1.133.14-1.6.42-.467.267-.833.64-1.1 1.12-.267.48-.4 1.027-.4 1.64 0 .627.133 1.187.4 1.68.267.48.633.86 1.1 1.14.467.28 1 .42 1.6.42zm10.808 1.74c-.773 0-1.473-.173-2.1-.52a3.842 3.842 0 0 1-1.44-1.48c-.346-.627-.52-1.353-.52-2.18v-5.52h1.8v5.44c0 .52.087.973.26 1.36.187.373.454.66.8.86.347.2.754.3 1.22.3.707 0 1.26-.22 1.66-.66.4-.453.6-1.073.6-1.86v-5.44h1.8v5.52c0 .827-.173 1.553-.52 2.18a3.828 3.828 0 0 1-1.44 1.48c-.6.347-1.306.52-2.12.52zm6.493-.2v-9.5h1.8v9.5h-1.8zm1.8-5.42-.68-.3c0-1.213.28-2.18.84-2.9.56-.72 1.366-1.08 2.42-1.08.48 0 .913.087 1.3.26.386.16.746.433 1.08.82l-1.18 1.22c-.2-.213-.42-.367-.66-.46-.24-.093-.52-.14-.84-.14-.667 0-1.214.213-1.64.64-.427.427-.64 1.073-.64 1.94zm15.079 5.62c-.934 0-1.78-.22-2.54-.66a4.947 4.947 0 0 1-1.78-1.78c-.427-.76-.64-1.6-.64-2.52 0-.933.213-1.773.64-2.52a4.794 4.794 0 0 1 1.78-1.76c.76-.44 1.606-.66 2.54-.66.733 0 1.413.14 2.04.42.626.267 1.166.66 1.62 1.18l-1.2 1.2a2.75 2.75 0 0 0-1.08-.78 3.314 3.314 0 0 0-1.38-.28c-.6 0-1.134.14-1.6.42-.467.267-.834.64-1.1 1.12-.267.48-.4 1.033-.4 1.66s.133 1.18.4 1.66c.266.48.633.86 1.1 1.14.466.28 1 .42 1.6.42.506 0 .966-.087 1.38-.26a3.13 3.13 0 0 0 1.1-.8l1.18 1.2a4.5 4.5 0 0 1-1.62 1.18c-.627.28-1.307.42-2.04.42zm9.265 0c-.773 0-1.473-.173-2.1-.52a3.842 3.842 0 0 1-1.44-1.48c-.347-.627-.52-1.353-.52-2.18v-5.52h1.8v5.44c0 .52.087.973.26 1.36a2 2 0 0 0 .8.86c.347.2.753.3 1.22.3.707 0 1.26-.22 1.66-.66.4-.453.6-1.073.6-1.86v-5.44h1.8v5.52c0 .827-.173 1.553-.52 2.18a3.842 3.842 0 0 1-1.44 1.48c-.6.347-1.307.52-2.12.52zm9.512 0a5.67 5.67 0 0 1-1.52-.2 5.538 5.538 0 0 1-1.3-.6c-.4-.267-.746-.58-1.04-.94l1.16-1.16c.347.427.747.747 1.2.96.454.2.96.3 1.52.3s.994-.093 1.3-.28c.307-.2.46-.473.46-.82s-.126-.613-.38-.8c-.24-.2-.553-.36-.94-.48-.386-.133-.8-.26-1.24-.38a7.56 7.56 0 0 1-1.22-.5 2.727 2.727 0 0 1-.96-.82c-.24-.347-.36-.807-.36-1.38 0-.573.14-1.067.42-1.48.28-.427.667-.753 1.16-.98.507-.227 1.114-.34 1.82-.34.747 0 1.407.133 1.98.4.587.253 1.067.64 1.44 1.16l-1.16 1.16a2.66 2.66 0 0 0-1-.8 2.99 2.99 0 0 0-1.32-.28c-.52 0-.92.093-1.2.28a.833.833 0 0 0-.4.74c0 .32.12.567.36.74.24.173.554.32.94.44.4.12.814.247 1.24.38.427.12.834.287 1.22.5.387.213.7.5.94.86.254.36.38.833.38 1.42 0 .893-.32 1.6-.96 2.12-.626.52-1.473.78-2.54.78zm6.976-.2v-13.48h1.8V223h-1.8zm-2.34-7.86v-1.64h6.48v1.64h-6.48zm12.29 8.06c-.933 0-1.773-.22-2.52-.66a4.947 4.947 0 0 1-1.78-1.78c-.44-.76-.66-1.607-.66-2.54 0-.92.22-1.747.66-2.48a4.947 4.947 0 0 1 1.78-1.78c.747-.44 1.587-.66 2.52-.66.92 0 1.753.22 2.5.66a4.753 4.753 0 0 1 1.8 1.76c.44.747.66 1.58.66 2.5 0 .933-.22 1.78-.66 2.54a4.902 4.902 0 0 1-1.8 1.78c-.747.44-1.58.66-2.5.66zm0-1.74c.6 0 1.133-.14 1.6-.42.467-.28.833-.66 1.1-1.14.267-.493.4-1.053.4-1.68 0-.613-.14-1.16-.42-1.64a2.868 2.868 0 0 0-1.1-1.12c-.453-.28-.98-.42-1.58-.42-.6 0-1.133.14-1.6.42-.467.267-.833.64-1.1 1.12-.267.48-.4 1.027-.4 1.64 0 .627.133 1.187.4 1.68.267.48.633.86 1.1 1.14.467.28 1 .42 1.6.42zm6.988 1.54v-9.5h1.8v9.5h-1.8zm6.42 0v-5.74c0-.707-.22-1.26-.66-1.66-.427-.413-.967-.62-1.62-.62-.44 0-.833.093-1.18.28a2.247 2.247 0 0 0-.84.78c-.213.333-.32.733-.32 1.2l-.74-.36c0-.72.153-1.347.46-1.88.32-.533.753-.947 1.3-1.24a3.693 3.693 0 0 1 1.84-.46c.667 0 1.267.147 1.8.44.547.293.973.707 1.28 1.24.32.533.48 1.167.48 1.9V223h-1.8zm6.42 0v-5.74c0-.707-.22-1.26-.66-1.66-.427-.413-.96-.62-1.6-.62-.44 0-.84.093-1.2.28a2.247 2.247 0 0 0-.84.78c-.213.333-.32.733-.32 1.2l-1.02-.36c.04-.733.233-1.36.58-1.88.36-.533.82-.947 1.38-1.24a3.764 3.764 0 0 1 1.84-.46c.693 0 1.313.147 1.86.44.547.293.98.707 1.3 1.24.333.533.5 1.173.5 1.92v6.1h-1.82zm8.669.2c-.946 0-1.8-.213-2.56-.64a4.902 4.902 0 0 1-1.8-1.78c-.44-.747-.66-1.593-.66-2.54 0-.933.214-1.773.64-2.52a4.845 4.845 0 0 1 1.76-1.76c.747-.44 1.58-.66 2.5-.66.88 0 1.654.2 2.32.6.68.4 1.207.953 1.58 1.66.387.707.58 1.507.58 2.4 0 .133-.006.28-.02.44-.013.147-.04.32-.08.52h-8.02v-1.5h7.06l-.66.58c0-.64-.113-1.18-.34-1.62a2.415 2.415 0 0 0-.96-1.04c-.413-.253-.913-.38-1.5-.38-.613 0-1.153.133-1.62.4-.466.267-.826.64-1.08 1.12-.253.48-.38 1.047-.38 1.7 0 .667.134 1.253.4 1.76.267.493.647.88 1.14 1.16.494.267 1.06.4 1.7.4.534 0 1.02-.093 1.46-.28.454-.187.84-.467 1.16-.84l1.16 1.18a4.41 4.41 0 0 1-1.68 1.22c-.653.28-1.353.42-2.1.42zm6.323-.2v-9.5h1.8v9.5h-1.8zm1.8-5.42-.68-.3c0-1.213.28-2.18.84-2.9.56-.72 1.367-1.08 2.42-1.08.48 0 .913.087 1.3.26.387.16.747.433 1.08.82l-1.18 1.22c-.2-.213-.42-.367-.66-.46-.24-.093-.52-.14-.84-.14-.667 0-1.213.213-1.64.64-.427.427-.64 1.073-.64 1.94zm15.739 5.62c-.72 0-1.373-.147-1.96-.44a3.705 3.705 0 0 1-1.38-1.26 3.67 3.67 0 0 1-.58-1.82v-2.86c.04-.693.233-1.3.58-1.82.36-.533.827-.947 1.4-1.24a4.12 4.12 0 0 1 1.94-.46c.867 0 1.647.22 2.34.66a4.632 4.632 0 0 1 1.66 1.78c.4.747.6 1.587.6 2.52s-.2 1.773-.6 2.52c-.4.747-.953 1.34-1.66 1.78-.693.427-1.473.64-2.34.64zm-.3-1.7c.6 0 1.127-.14 1.58-.42.453-.28.813-.66 1.08-1.14.267-.493.4-1.06.4-1.7 0-.627-.133-1.187-.4-1.68a2.884 2.884 0 0 0-1.08-1.14c-.453-.28-.973-.42-1.56-.42-.6 0-1.127.14-1.58.42a2.745 2.745 0 0 0-1.06 1.14c-.253.493-.38 1.06-.38 1.7 0 .627.12 1.187.36 1.68.253.48.607.86 1.06 1.14.467.28.993.42 1.58.42zm-4.7 1.5v-14.28h1.8v7.1l-.34 2.3.34 2.32V223h-1.8zm15.681.2a4.472 4.472 0 0 1-2.36-.64 4.783 4.783 0 0 1-1.68-1.78c-.4-.747-.6-1.587-.6-2.52s.2-1.773.6-2.52a4.837 4.837 0 0 1 1.66-1.78c.706-.44 1.5-.66 2.38-.66.72 0 1.36.153 1.92.46a3.543 3.543 0 0 1 1.38 1.24c.346.52.54 1.127.58 1.82v2.86a3.68 3.68 0 0 1-.58 1.82 3.552 3.552 0 0 1-1.36 1.26c-.56.293-1.207.44-1.94.44zm.3-1.7c.893 0 1.613-.3 2.16-.9.546-.613.82-1.393.82-2.34 0-.653-.127-1.22-.38-1.7a2.62 2.62 0 0 0-1.04-1.14c-.454-.28-.98-.42-1.58-.42-.6 0-1.134.14-1.6.42-.454.28-.814.667-1.08 1.16-.254.48-.38 1.033-.38 1.66 0 .64.126 1.207.38 1.7.266.48.633.86 1.1 1.14.466.28 1 .42 1.6.42zm2.86 1.5v-2.56l.34-2.32-.34-2.3v-2.32h1.82v9.5h-1.82zm7.46.2a5.67 5.67 0 0 1-1.52-.2 5.538 5.538 0 0 1-1.3-.6c-.4-.267-.746-.58-1.04-.94l1.16-1.16c.347.427.747.747 1.2.96.454.2.96.3 1.52.3s.994-.093 1.3-.28c.307-.2.46-.473.46-.82s-.126-.613-.38-.8c-.24-.2-.553-.36-.94-.48-.386-.133-.8-.26-1.24-.38a7.56 7.56 0 0 1-1.22-.5 2.727 2.727 0 0 1-.96-.82c-.24-.347-.36-.807-.36-1.38 0-.573.14-1.067.42-1.48.28-.427.667-.753 1.16-.98.507-.227 1.114-.34 1.82-.34.747 0 1.407.133 1.98.4.587.253 1.067.64 1.44 1.16l-1.16 1.16a2.66 2.66 0 0 0-1-.8 2.99 2.99 0 0 0-1.32-.28c-.52 0-.92.093-1.2.28a.833.833 0 0 0-.4.74c0 .32.12.567.36.74.24.173.554.32.94.44.4.12.814.247 1.24.38.427.12.834.287 1.22.5.387.213.7.5.94.86.254.36.38.833.38 1.42 0 .893-.32 1.6-.96 2.12-.626.52-1.473.78-2.54.78zm9.916 0c-.947 0-1.8-.213-2.56-.64a4.902 4.902 0 0 1-1.8-1.78c-.44-.747-.66-1.593-.66-2.54 0-.933.213-1.773.64-2.52a4.838 4.838 0 0 1 1.76-1.76c.746-.44 1.58-.66 2.5-.66.88 0 1.653.2 2.32.6.68.4 1.206.953 1.58 1.66.386.707.58 1.507.58 2.4 0 .133-.007.28-.02.44a5.2 5.2 0 0 1-.08.52h-8.02v-1.5h7.06l-.66.58c0-.64-.114-1.18-.34-1.62a2.427 2.427 0 0 0-.96-1.04c-.414-.253-.914-.38-1.5-.38-.614 0-1.154.133-1.62.4a2.73 2.73 0 0 0-1.08 1.12c-.254.48-.38 1.047-.38 1.7 0 .667.133 1.253.4 1.76.266.493.646.88 1.14 1.16.493.267 1.06.4 1.7.4.533 0 1.02-.093 1.46-.28.453-.187.84-.467 1.16-.84l1.16 1.18a4.425 4.425 0 0 1-1.68 1.22c-.654.28-1.354.42-2.1.42zm13.202-.2-3.76-9.5h1.88l2.72 7.4h-.6l2.7-7.4h1.04l2.7 7.4h-.6l2.72-7.4h1.88l-3.74 9.5h-1.06l-2.74-7.18h.66l-2.76 7.18h-1.04zm12.144 0v-9.5h1.8v9.5h-1.8zm.9-11.4c-.333 0-.607-.107-.82-.32a1.181 1.181 0 0 1-.32-.84c0-.32.107-.587.32-.8.213-.227.487-.34.82-.34.333 0 .607.113.82.34.213.213.32.48.32.8 0 .333-.107.613-.32.84-.213.213-.487.32-.82.32zm3.553 11.4v-14.28h1.8V223h-1.8zm4.433 0v-14.28h1.8V223h-1.8zm12.534 4.18c-.973 0-1.84-.18-2.6-.54a4.55 4.55 0 0 1-1.8-1.52l1.16-1.18c.387.493.847.867 1.38 1.12.533.267 1.167.4 1.9.4.973 0 1.74-.26 2.3-.78.573-.507.86-1.193.86-2.06v-2.36l.32-2.14-.32-2.12v-2.5h1.8v9.12c0 .907-.213 1.7-.64 2.38-.413.68-1 1.213-1.76 1.6-.747.387-1.613.58-2.6.58zm0-4.34c-.867 0-1.647-.207-2.34-.62a4.512 4.512 0 0 1-1.62-1.7c-.4-.733-.6-1.553-.6-2.46s.2-1.713.6-2.42c.4-.72.94-1.287 1.62-1.7.693-.427 1.473-.64 2.34-.64.747 0 1.407.147 1.98.44a3.394 3.394 0 0 1 1.36 1.24c.347.52.533 1.133.56 1.84v2.52c-.04.693-.233 1.307-.58 1.84a3.44 3.44 0 0 1-1.36 1.22c-.573.293-1.227.44-1.96.44zm.36-1.7c.587 0 1.1-.127 1.54-.38.453-.253.8-.607 1.04-1.06.24-.467.36-1.007.36-1.62 0-.613-.127-1.147-.38-1.6a2.57 2.57 0 0 0-1.02-1.08c-.44-.267-.96-.4-1.56-.4-.6 0-1.127.133-1.58.4a2.802 2.802 0 0 0-1.08 1.08c-.253.453-.38.98-.38 1.58 0 .6.127 1.133.38 1.6.267.467.627.833 1.08 1.1.467.253 1 .38 1.6.38zm7.282 1.86v-9.5h1.8v9.5h-1.8zm1.8-5.42-.68-.3c0-1.213.28-2.18.84-2.9.56-.72 1.367-1.08 2.42-1.08.48 0 .913.087 1.3.26.387.16.747.433 1.08.82l-1.18 1.22c-.2-.213-.42-.367-.66-.46-.24-.093-.52-.14-.84-.14-.667 0-1.213.213-1.64.64-.427.427-.64 1.073-.64 1.94zm10.255 5.62c-.933 0-1.773-.22-2.52-.66a4.947 4.947 0 0 1-1.78-1.78c-.44-.76-.66-1.607-.66-2.54 0-.92.22-1.747.66-2.48a4.947 4.947 0 0 1 1.78-1.78c.747-.44 1.587-.66 2.52-.66.92 0 1.753.22 2.5.66a4.753 4.753 0 0 1 1.8 1.76c.44.747.66 1.58.66 2.5 0 .933-.22 1.78-.66 2.54a4.902 4.902 0 0 1-1.8 1.78c-.747.44-1.58.66-2.5.66zm0-1.74c.6 0 1.133-.14 1.6-.42.467-.28.833-.66 1.1-1.14.267-.493.4-1.053.4-1.68 0-.613-.14-1.16-.42-1.64a2.868 2.868 0 0 0-1.1-1.12c-.453-.28-.98-.42-1.58-.42-.6 0-1.133.14-1.6.42-.467.267-.833.64-1.1 1.12-.267.48-.4 1.027-.4 1.64 0 .627.133 1.187.4 1.68.267.48.633.86 1.1 1.14.467.28 1 .42 1.6.42zm9.435 1.54-3.76-9.5h1.88l2.72 7.4h-.6l2.7-7.4h1.04l2.7 7.4h-.6l2.72-7.4h1.88l-3.74 9.5h-1.06l-2.74-7.18h.66l-2.76 7.18h-1.04zM45.72 247.2c-.947 0-1.8-.213-2.56-.64a4.902 4.902 0 0 1-1.8-1.78c-.44-.747-.66-1.593-.66-2.54 0-.933.213-1.773.64-2.52a4.843 4.843 0 0 1 1.76-1.76c.747-.44 1.58-.66 2.5-.66.88 0 1.653.2 2.32.6.68.4 1.207.953 1.58 1.66.387.707.58 1.507.58 2.4 0 .133-.007.28-.02.44-.013.147-.04.32-.08.52h-8.02v-1.5h7.06l-.66.58c0-.64-.113-1.18-.34-1.62a2.424 2.424 0 0 0-.96-1.04c-.413-.253-.913-.38-1.5-.38-.613 0-1.153.133-1.62.4-.467.267-.827.64-1.08 1.12-.253.48-.38 1.047-.38 1.7 0 .667.133 1.253.4 1.76.267.493.647.88 1.14 1.16.493.267 1.06.4 1.7.4.533 0 1.02-.093 1.46-.28a3.03 3.03 0 0 0 1.16-.84l1.16 1.18a4.414 4.414 0 0 1-1.68 1.22c-.653.28-1.353.42-2.1.42zm12.27-.2-2.96-4.16-.34-.32-3.74-5.02h2.18l2.7 3.7.34.28 4 5.52h-2.18zm-7.22 0 3.92-5.28 1.02 1.32-2.82 3.96h-2.12zm5.54-4.5-1.04-1.28 2.62-3.72h2.1l-3.68 5zm10.518 4.7c-.72 0-1.374-.147-1.96-.44a3.7 3.7 0 0 1-1.38-1.26 3.673 3.673 0 0 1-.58-1.82v-2.86c.04-.693.233-1.3.58-1.82.36-.533.826-.947 1.4-1.24a4.12 4.12 0 0 1 1.94-.46c.867 0 1.647.22 2.34.66a4.634 4.634 0 0 1 1.66 1.78c.4.747.6 1.587.6 2.52s-.2 1.773-.6 2.52c-.4.747-.954 1.34-1.66 1.78-.694.427-1.474.64-2.34.64zm-.3-1.7c.6 0 1.126-.14 1.58-.42.453-.28.813-.66 1.08-1.14.266-.493.4-1.06.4-1.7 0-.627-.133-1.187-.4-1.68a2.88 2.88 0 0 0-1.08-1.14c-.454-.28-.974-.42-1.56-.42-.6 0-1.127.14-1.58.42a2.745 2.745 0 0 0-1.06 1.14c-.254.493-.38 1.06-.38 1.7 0 .627.12 1.187.36 1.68.253.48.607.86 1.06 1.14.467.28.993.42 1.58.42zm-4.7 5.48V237.5h1.8v2.5l-.34 2.3.34 2.32v6.36h-1.8zm15.98-3.78c-.933 0-1.773-.22-2.52-.66a4.95 4.95 0 0 1-1.78-1.78c-.44-.76-.66-1.607-.66-2.54 0-.92.22-1.747.66-2.48a4.95 4.95 0 0 1 1.78-1.78c.747-.44 1.587-.66 2.52-.66.92 0 1.754.22 2.5.66a4.753 4.753 0 0 1 1.8 1.76c.44.747.66 1.58.66 2.5 0 .933-.22 1.78-.66 2.54a4.902 4.902 0 0 1-1.8 1.78c-.746.44-1.58.66-2.5.66zm0-1.74c.6 0 1.134-.14 1.6-.42a3.01 3.01 0 0 0 1.1-1.14c.267-.493.4-1.053.4-1.68 0-.613-.14-1.16-.42-1.64a2.868 2.868 0 0 0-1.1-1.12c-.453-.28-.98-.42-1.58-.42-.6 0-1.133.14-1.6.42a2.87 2.87 0 0 0-1.1 1.12c-.266.48-.4 1.027-.4 1.64 0 .627.134 1.187.4 1.68.267.48.634.86 1.1 1.14.467.28 1 .42 1.6.42zM91.517 247v-5.54c0-.72-.227-1.313-.68-1.78-.454-.467-1.04-.7-1.76-.7-.48 0-.907.107-1.28.32a2.323 2.323 0 0 0-.88.88c-.214.373-.32.8-.32 1.28l-.74-.42c0-.72.16-1.36.48-1.92.32-.56.766-1 1.34-1.32.573-.333 1.22-.5 1.94-.5s1.353.18 1.9.54c.56.36 1 .833 1.32 1.42.32.573.48 1.187.48 1.84v5.9h-1.8zm-6.72 0v-9.5h1.8v9.5h-1.8zm15.357.2c-.947 0-1.8-.213-2.56-.64a4.902 4.902 0 0 1-1.8-1.78c-.44-.747-.66-1.593-.66-2.54 0-.933.213-1.773.64-2.52a4.843 4.843 0 0 1 1.76-1.76c.746-.44 1.58-.66 2.5-.66.88 0 1.653.2 2.32.6.68.4 1.206.953 1.58 1.66.386.707.58 1.507.58 2.4 0 .133-.007.28-.02.44a5.2 5.2 0 0 1-.08.52h-8.02v-1.5h7.06l-.66.58c0-.64-.114-1.18-.34-1.62a2.427 2.427 0 0 0-.96-1.04c-.414-.253-.914-.38-1.5-.38-.614 0-1.154.133-1.62.4-.467.267-.827.64-1.08 1.12-.254.48-.38 1.047-.38 1.7 0 .667.133 1.253.4 1.76.266.493.646.88 1.14 1.16.493.267 1.06.4 1.7.4.533 0 1.02-.093 1.46-.28.453-.187.84-.467 1.16-.84l1.16 1.18a4.425 4.425 0 0 1-1.68 1.22c-.654.28-1.354.42-2.1.42zm13.042-.2v-5.54c0-.72-.226-1.313-.68-1.78-.453-.467-1.04-.7-1.76-.7-.48 0-.906.107-1.28.32a2.331 2.331 0 0 0-.88.88c-.213.373-.32.8-.32 1.28l-.74-.42c0-.72.16-1.36.48-1.92.32-.56.767-1 1.34-1.32.574-.333 1.22-.5 1.94-.5s1.354.18 1.9.54c.56.36 1 .833 1.32 1.42.32.573.48 1.187.48 1.84v5.9h-1.8zm-6.72 0v-9.5h1.8v9.5h-1.8zm12.3 0v-13.48h1.8V247h-1.8zm-2.34-7.86v-1.64h6.48v1.64h-6.48zm8.263 7.86v-9.5h1.8v9.5h-1.8zm.9-11.4c-.333 0-.606-.107-.82-.32a1.181 1.181 0 0 1-.32-.84c0-.32.107-.587.32-.8.214-.227.487-.34.82-.34.334 0 .607.113.82.34.214.213.32.48.32.8 0 .333-.106.613-.32.84-.213.213-.486.32-.82.32zm7.593 11.6a4.474 4.474 0 0 1-2.36-.64 4.783 4.783 0 0 1-1.68-1.78c-.4-.747-.6-1.587-.6-2.52s.2-1.773.6-2.52a4.845 4.845 0 0 1 1.66-1.78c.707-.44 1.5-.66 2.38-.66.72 0 1.36.153 1.92.46a3.543 3.543 0 0 1 1.38 1.24c.347.52.54 1.127.58 1.82v2.86a3.67 3.67 0 0 1-.58 1.82 3.545 3.545 0 0 1-1.36 1.26c-.56.293-1.207.44-1.94.44zm.3-1.7c.893 0 1.613-.3 2.16-.9.547-.613.82-1.393.82-2.34 0-.653-.127-1.22-.38-1.7a2.62 2.62 0 0 0-1.04-1.14c-.453-.28-.98-.42-1.58-.42-.6 0-1.133.14-1.6.42a3.03 3.03 0 0 0-1.08 1.16c-.253.48-.38 1.033-.38 1.66 0 .64.127 1.207.38 1.7.267.48.633.86 1.1 1.14.467.28 1 .42 1.6.42zm2.86 1.5v-2.56l.34-2.32-.34-2.3v-2.32h1.82v9.5h-1.82zm4.441 0v-14.28h1.8V247h-1.8zm4.433 0v-14.28h1.8V247h-1.8zm7.554.08-4.12-9.58h2l3.06 7.5h-.64l3.22-7.5h2l-4.44 9.58h-1.08zm-2.72 3.9 2.8-5.74 1 1.84-1.8 3.9h-2zm18.073-3.78a4.477 4.477 0 0 1-2.36-.64 4.8 4.8 0 0 1-1.68-1.78c-.4-.747-.6-1.587-.6-2.52s.2-1.773.6-2.52a4.853 4.853 0 0 1 1.66-1.78c.707-.44 1.5-.66 2.38-.66.72 0 1.36.153 1.92.46a3.53 3.53 0 0 1 1.38 1.24c.347.52.54 1.127.58 1.82v2.86a3.67 3.67 0 0 1-.58 1.82 3.538 3.538 0 0 1-1.36 1.26c-.56.293-1.206.44-1.94.44zm.3-1.7c.894 0 1.614-.3 2.16-.9.547-.613.82-1.393.82-2.34 0-.653-.126-1.22-.38-1.7a2.615 2.615 0 0 0-1.04-1.14c-.453-.28-.98-.42-1.58-.42-.6 0-1.133.14-1.6.42a3.03 3.03 0 0 0-1.08 1.16c-.253.48-.38 1.033-.38 1.66 0 .64.127 1.207.38 1.7.267.48.634.86 1.1 1.14.467.28 1 .42 1.6.42zm2.86 1.5v-2.56l.34-2.32-.34-2.3v-2.32h1.82v9.5h-1.82zm7.461.2a5.67 5.67 0 0 1-1.52-.2 5.52 5.52 0 0 1-1.3-.6 4.68 4.68 0 0 1-1.04-.94l1.16-1.16c.347.427.747.747 1.2.96.453.2.96.3 1.52.3s.993-.093 1.3-.28c.307-.2.46-.473.46-.82s-.127-.613-.38-.8c-.24-.2-.553-.36-.94-.48-.387-.133-.8-.26-1.24-.38a7.524 7.524 0 0 1-1.22-.5 2.71 2.71 0 0 1-.96-.82c-.24-.347-.36-.807-.36-1.38 0-.573.14-1.067.42-1.48.28-.427.667-.753 1.16-.98.507-.227 1.113-.34 1.82-.34.747 0 1.407.133 1.98.4.587.253 1.067.64 1.44 1.16l-1.16 1.16a2.667 2.667 0 0 0-1-.8 2.996 2.996 0 0 0-1.32-.28c-.52 0-.92.093-1.2.28a.831.831 0 0 0-.4.74c0 .32.12.567.36.74.24.173.553.32.94.44.4.12.813.247 1.24.38.427.12.833.287 1.22.5.387.213.7.5.94.86.253.36.38.833.38 1.42 0 .893-.32 1.6-.96 2.12-.627.52-1.473.78-2.54.78zm12.795-.12-4.12-9.58h2l3.06 7.5h-.64l3.22-7.5h2l-4.44 9.58h-1.08zm-2.72 3.9 2.8-5.74 1 1.84-1.8 3.9h-2zm13.686-3.78c-.933 0-1.773-.22-2.52-.66a4.954 4.954 0 0 1-1.78-1.78c-.44-.76-.66-1.607-.66-2.54 0-.92.22-1.747.66-2.48a4.954 4.954 0 0 1 1.78-1.78c.747-.44 1.587-.66 2.52-.66.92 0 1.754.22 2.5.66a4.753 4.753 0 0 1 1.8 1.76c.44.747.66 1.58.66 2.5 0 .933-.22 1.78-.66 2.54a4.902 4.902 0 0 1-1.8 1.78c-.746.44-1.58.66-2.5.66zm0-1.74c.6 0 1.134-.14 1.6-.42.467-.28.834-.66 1.1-1.14.267-.493.4-1.053.4-1.68 0-.613-.14-1.16-.42-1.64a2.862 2.862 0 0 0-1.1-1.12c-.453-.28-.98-.42-1.58-.42-.6 0-1.133.14-1.6.42-.466.267-.833.64-1.1 1.12-.266.48-.4 1.027-.4 1.64 0 .627.134 1.187.4 1.68.267.48.634.86 1.1 1.14.467.28 1 .42 1.6.42zm10.809 1.74c-.774 0-1.474-.173-2.1-.52a3.828 3.828 0 0 1-1.44-1.48c-.347-.627-.52-1.353-.52-2.18v-5.52h1.8v5.44c0 .52.086.973.26 1.36.186.373.453.66.8.86.346.2.753.3 1.22.3.706 0 1.26-.22 1.66-.66.4-.453.6-1.073.6-1.86v-5.44h1.8v5.52c0 .827-.174 1.553-.52 2.18a3.842 3.842 0 0 1-1.44 1.48c-.6.347-1.307.52-2.12.52zm6.492-.2v-9.5h1.8v9.5h-1.8zm1.8-5.42-.68-.3c0-1.213.28-2.18.84-2.9.56-.72 1.367-1.08 2.42-1.08.48 0 .913.087 1.3.26.387.16.747.433 1.08.82l-1.18 1.22c-.2-.213-.42-.367-.66-.46-.24-.093-.52-.14-.84-.14-.667 0-1.213.213-1.64.64-.427.427-.64 1.073-.64 1.94zm15.079 5.62c-.933 0-1.78-.22-2.54-.66a4.947 4.947 0 0 1-1.78-1.78c-.427-.76-.64-1.6-.64-2.52 0-.933.213-1.773.64-2.52a4.794 4.794 0 0 1 1.78-1.76c.76-.44 1.607-.66 2.54-.66.733 0 1.413.14 2.04.42a4.42 4.42 0 0 1 1.62 1.18l-1.2 1.2a2.736 2.736 0 0 0-1.08-.78 3.308 3.308 0 0 0-1.38-.28c-.6 0-1.133.14-1.6.42-.467.267-.833.64-1.1 1.12-.267.48-.4 1.033-.4 1.66s.133 1.18.4 1.66.633.86 1.1 1.14c.467.28 1 .42 1.6.42.507 0 .967-.087 1.38-.26a3.121 3.121 0 0 0 1.1-.8l1.18 1.2a4.5 4.5 0 0 1-1.62 1.18c-.627.28-1.307.42-2.04.42zm9.265 0c-.773 0-1.473-.173-2.1-.52a3.842 3.842 0 0 1-1.44-1.48c-.346-.627-.52-1.353-.52-2.18v-5.52h1.8v5.44c0 .52.087.973.26 1.36.187.373.454.66.8.86.347.2.754.3 1.22.3.707 0 1.26-.22 1.66-.66.4-.453.6-1.073.6-1.86v-5.44h1.8v5.52c0 .827-.173 1.553-.52 2.18a3.828 3.828 0 0 1-1.44 1.48c-.6.347-1.306.52-2.12.52zm9.513 0c-.534 0-1.04-.067-1.52-.2a5.52 5.52 0 0 1-1.3-.6 4.68 4.68 0 0 1-1.04-.94l1.16-1.16c.346.427.746.747 1.2.96.453.2.96.3 1.52.3s.993-.093 1.3-.28c.306-.2.46-.473.46-.82s-.127-.613-.38-.8c-.24-.2-.554-.36-.94-.48-.387-.133-.8-.26-1.24-.38a7.487 7.487 0 0 1-1.22-.5 2.71 2.71 0 0 1-.96-.82c-.24-.347-.36-.807-.36-1.38 0-.573.14-1.067.42-1.48.28-.427.666-.753 1.16-.98.506-.227 1.113-.34 1.82-.34.746 0 1.406.133 1.98.4.586.253 1.066.64 1.44 1.16l-1.16 1.16a2.667 2.667 0 0 0-1-.8 2.996 2.996 0 0 0-1.32-.28c-.52 0-.92.093-1.2.28a.831.831 0 0 0-.4.74c0 .32.12.567.36.74.24.173.553.32.94.44.4.12.813.247 1.24.38.426.12.833.287 1.22.5.386.213.7.5.94.86.253.36.38.833.38 1.42 0 .893-.32 1.6-.96 2.12-.627.52-1.474.78-2.54.78zm6.975-.2v-13.48h1.8V247h-1.8zm-2.34-7.86v-1.64h6.48v1.64h-6.48zm12.29 8.06c-.933 0-1.773-.22-2.52-.66a4.954 4.954 0 0 1-1.78-1.78c-.44-.76-.66-1.607-.66-2.54 0-.92.22-1.747.66-2.48a4.954 4.954 0 0 1 1.78-1.78c.747-.44 1.587-.66 2.52-.66.92 0 1.754.22 2.5.66a4.753 4.753 0 0 1 1.8 1.76c.44.747.66 1.58.66 2.5 0 .933-.22 1.78-.66 2.54a4.902 4.902 0 0 1-1.8 1.78c-.746.44-1.58.66-2.5.66zm0-1.74c.6 0 1.134-.14 1.6-.42.467-.28.834-.66 1.1-1.14.267-.493.4-1.053.4-1.68 0-.613-.14-1.16-.42-1.64a2.862 2.862 0 0 0-1.1-1.12c-.453-.28-.98-.42-1.58-.42-.6 0-1.133.14-1.6.42-.466.267-.833.64-1.1 1.12-.266.48-.4 1.027-.4 1.64 0 .627.134 1.187.4 1.68.267.48.634.86 1.1 1.14.467.28 1 .42 1.6.42zm6.988 1.54v-9.5h1.8v9.5h-1.8zm6.42 0v-5.74c0-.707-.22-1.26-.66-1.66-.426-.413-.966-.62-1.62-.62-.44 0-.833.093-1.18.28a2.262 2.262 0 0 0-.84.78c-.213.333-.32.733-.32 1.2l-.74-.36c0-.72.154-1.347.46-1.88.32-.533.754-.947 1.3-1.24a3.693 3.693 0 0 1 1.84-.46c.667 0 1.267.147 1.8.44.547.293.974.707 1.28 1.24.32.533.48 1.167.48 1.9V247h-1.8zm6.42 0v-5.74c0-.707-.22-1.26-.66-1.66-.426-.413-.96-.62-1.6-.62-.44 0-.84.093-1.2.28a2.262 2.262 0 0 0-.84.78c-.213.333-.32.733-.32 1.2l-1.02-.36c.04-.733.234-1.36.58-1.88.36-.533.82-.947 1.38-1.24a3.766 3.766 0 0 1 1.84-.46c.694 0 1.314.147 1.86.44.547.293.98.707 1.3 1.24.334.533.5 1.173.5 1.92v6.1h-1.82zm8.67.2c-.947 0-1.8-.213-2.56-.64a4.902 4.902 0 0 1-1.8-1.78c-.44-.747-.66-1.593-.66-2.54 0-.933.213-1.773.64-2.52a4.838 4.838 0 0 1 1.76-1.76c.746-.44 1.58-.66 2.5-.66.88 0 1.653.2 2.32.6.68.4 1.206.953 1.58 1.66.386.707.58 1.507.58 2.4 0 .133-.007.28-.02.44a5.2 5.2 0 0 1-.08.52h-8.02v-1.5h7.06l-.66.58c0-.64-.114-1.18-.34-1.62a2.427 2.427 0 0 0-.96-1.04c-.414-.253-.914-.38-1.5-.38-.614 0-1.154.133-1.62.4a2.73 2.73 0 0 0-1.08 1.12c-.254.48-.38 1.047-.38 1.7 0 .667.133 1.253.4 1.76.266.493.646.88 1.14 1.16.493.267 1.06.4 1.7.4.533 0 1.02-.093 1.46-.28.453-.187.84-.467 1.16-.84l1.16 1.18a4.425 4.425 0 0 1-1.68 1.22c-.654.28-1.354.42-2.1.42zm6.322-.2v-9.5h1.8v9.5h-1.8zm1.8-5.42-.68-.3c0-1.213.28-2.18.84-2.9.56-.72 1.367-1.08 2.42-1.08.48 0 .914.087 1.3.26.387.16.747.433 1.08.82l-1.18 1.22c-.2-.213-.42-.367-.66-.46-.24-.093-.52-.14-.84-.14-.666 0-1.213.213-1.64.64-.426.427-.64 1.073-.64 1.94zm9.033 5.62a5.67 5.67 0 0 1-1.52-.2 5.52 5.52 0 0 1-1.3-.6 4.68 4.68 0 0 1-1.04-.94l1.16-1.16c.347.427.747.747 1.2.96.453.2.96.3 1.52.3s.993-.093 1.3-.28c.307-.2.46-.473.46-.82s-.127-.613-.38-.8c-.24-.2-.553-.36-.94-.48-.387-.133-.8-.26-1.24-.38a7.524 7.524 0 0 1-1.22-.5 2.71 2.71 0 0 1-.96-.82c-.24-.347-.36-.807-.36-1.38 0-.573.14-1.067.42-1.48.28-.427.667-.753 1.16-.98.507-.227 1.113-.34 1.82-.34.747 0 1.407.133 1.98.4.587.253 1.067.64 1.44 1.16l-1.16 1.16a2.667 2.667 0 0 0-1-.8 2.996 2.996 0 0 0-1.32-.28c-.52 0-.92.093-1.2.28a.831.831 0 0 0-.4.74c0 .32.12.567.36.74.24.173.553.32.94.44.4.12.813.247 1.24.38.427.12.833.287 1.22.5.387.213.7.5.94.86.253.36.38.833.38 1.42 0 .893-.32 1.6-.96 2.12-.627.52-1.473.78-2.54.78zm13.715 0a4.477 4.477 0 0 1-2.36-.64 4.8 4.8 0 0 1-1.68-1.78c-.4-.747-.6-1.587-.6-2.52s.2-1.773.6-2.52a4.853 4.853 0 0 1 1.66-1.78c.707-.44 1.5-.66 2.38-.66.72 0 1.36.153 1.92.46a3.53 3.53 0 0 1 1.38 1.24c.347.52.54 1.127.58 1.82v2.86a3.67 3.67 0 0 1-.58 1.82 3.538 3.538 0 0 1-1.36 1.26c-.56.293-1.206.44-1.94.44zm.3-1.7c.894 0 1.614-.3 2.16-.9.547-.613.82-1.393.82-2.34 0-.653-.126-1.22-.38-1.7a2.615 2.615 0 0 0-1.04-1.14c-.453-.28-.98-.42-1.58-.42-.6 0-1.133.14-1.6.42a3.03 3.03 0 0 0-1.08 1.16c-.253.48-.38 1.033-.38 1.66 0 .64.127 1.207.38 1.7.267.48.634.86 1.1 1.14.467.28 1 .42 1.6.42zm2.86 1.5v-2.56l.34-2.32-.34-2.3v-2.32h1.82v9.5h-1.82zm8.461.2c-.88 0-1.667-.213-2.36-.64a4.845 4.845 0 0 1-1.66-1.78c-.4-.747-.6-1.587-.6-2.52s.2-1.773.6-2.52a4.845 4.845 0 0 1 1.66-1.78c.693-.44 1.48-.66 2.36-.66a4 4 0 0 1 1.92.46 3.543 3.543 0 0 1 1.38 1.24c.36.52.56 1.127.6 1.82v2.86a3.67 3.67 0 0 1-.58 1.82 3.705 3.705 0 0 1-1.38 1.26c-.573.293-1.22.44-1.94.44zm.3-1.7c.6 0 1.12-.14 1.56-.42a2.91 2.91 0 0 0 1.06-1.14c.253-.493.38-1.053.38-1.68 0-.653-.133-1.22-.4-1.7a2.91 2.91 0 0 0-1.06-1.14c-.44-.28-.96-.42-1.56-.42-.6 0-1.127.14-1.58.42a3.03 3.03 0 0 0-1.08 1.16c-.253.48-.38 1.033-.38 1.66 0 .64.127 1.207.38 1.7.267.48.627.86 1.08 1.14.467.28 1 .42 1.6.42zm4.7 1.5h-1.82v-2.56l.34-2.32-.34-2.3v-7.1h1.82V247zm6.641.2c-.88 0-1.667-.213-2.36-.64a4.848 4.848 0 0 1-1.661-1.78c-.399-.747-.599-1.587-.599-2.52s.2-1.773.599-2.52a4.848 4.848 0 0 1 1.661-1.78c.693-.44 1.48-.66 2.36-.66.706 0 1.346.153 1.92.46a3.543 3.543 0 0 1 1.38 1.24c.36.52.56 1.127.6 1.82v2.86a3.68 3.68 0 0 1-.58 1.82 3.705 3.705 0 0 1-1.38 1.26c-.574.293-1.22.44-1.94.44zm.3-1.7c.6 0 1.12-.14 1.56-.42.453-.28.806-.66 1.06-1.14.253-.493.38-1.053.38-1.68 0-.653-.134-1.22-.4-1.7a2.918 2.918 0 0 0-1.06-1.14c-.44-.28-.96-.42-1.56-.42-.6 0-1.127.14-1.58.42-.454.28-.814.667-1.08 1.16-.254.48-.38 1.033-.38 1.66 0 .64.126 1.207.38 1.7.266.48.626.86 1.08 1.14.466.28 1 .42 1.6.42zm4.7 1.5h-1.82v-2.56l.34-2.32-.34-2.3v-7.1h1.82V247zm8.24 0v-13.48h1.8V247h-1.8zm-2.34-7.86v-1.64h6.48v1.64h-6.48zm14.964 7.86v-5.54c0-.72-.227-1.313-.68-1.78-.454-.467-1.04-.7-1.76-.7-.48 0-.907.107-1.28.32a2.317 2.317 0 0 0-.88.88c-.214.373-.32.8-.32 1.28l-.74-.42c0-.72.16-1.36.48-1.92.32-.56.766-1 1.34-1.32.573-.333 1.22-.5 1.94-.5s1.353.16 1.9.48c.56.32 1 .767 1.32 1.34.32.573.48 1.233.48 1.98v5.9h-1.8zm-6.72 0v-14.28h1.8V247h-1.8zm15.357.2c-.947 0-1.8-.213-2.56-.64a4.902 4.902 0 0 1-1.8-1.78c-.44-.747-.66-1.593-.66-2.54 0-.933.213-1.773.64-2.52a4.838 4.838 0 0 1 1.76-1.76c.746-.44 1.58-.66 2.5-.66.88 0 1.653.2 2.32.6.68.4 1.206.953 1.58 1.66.386.707.58 1.507.58 2.4 0 .133-.007.28-.02.44a5.2 5.2 0 0 1-.08.52h-8.02v-1.5h7.06l-.66.58c0-.64-.114-1.18-.34-1.62a2.427 2.427 0 0 0-.96-1.04c-.414-.253-.914-.38-1.5-.38-.614 0-1.154.133-1.62.4a2.73 2.73 0 0 0-1.08 1.12c-.254.48-.38 1.047-.38 1.7 0 .667.133 1.253.4 1.76.266.493.646.88 1.14 1.16.493.267 1.06.4 1.7.4.533 0 1.02-.093 1.46-.28.453-.187.84-.467 1.16-.84l1.16 1.18a4.425 4.425 0 0 1-1.68 1.22c-.654.28-1.354.42-2.1.42zm6.342-.2v-9.5h1.8v9.5h-1.8zm.9-11.4c-.333 0-.606-.107-.82-.32a1.181 1.181 0 0 1-.32-.84c0-.32.107-.587.32-.8.214-.227.487-.34.82-.34.334 0 .607.113.82.34.214.213.32.48.32.8 0 .333-.106.613-.32.84-.213.213-.486.32-.82.32zm3.553 11.4v-9.5h1.8v9.5h-1.8zm1.8-5.42-.68-.3c0-1.213.28-2.18.84-2.9.56-.72 1.367-1.08 2.42-1.08.48 0 .913.087 1.3.26.387.16.747.433 1.08.82l-1.18 1.22c-.2-.213-.42-.367-.66-.46-.24-.093-.52-.14-.84-.14-.667 0-1.213.213-1.64.64-.427.427-.64 1.073-.64 1.94zM42.68 271v-10.92c0-.707.153-1.32.46-1.84a3.367 3.367 0 0 1 1.26-1.26c.547-.307 1.18-.46 1.9-.46.547 0 1.02.093 1.42.28.4.187.767.46 1.1.82l-1.18 1.16a1.734 1.734 0 0 0-.58-.42 1.726 1.726 0 0 0-.78-.16c-.573 0-1.02.167-1.34.5-.307.333-.46.793-.46 1.38V271h-1.8zm-2.34-7.86v-1.64h7.16v1.64h-7.16zm8.617 7.86v-9.5h1.8v9.5h-1.8zm1.8-5.42-.68-.3c0-1.213.28-2.18.84-2.9.56-.72 1.366-1.08 2.42-1.08.48 0 .913.087 1.3.26.386.16.746.433 1.08.82l-1.18 1.22c-.2-.213-.42-.367-.66-.46-.24-.093-.52-.14-.84-.14-.667 0-1.214.213-1.64.64-.427.427-.64 1.073-.64 1.94zm6.247 5.42v-9.5h1.8v9.5h-1.8zm.9-11.4c-.333 0-.607-.107-.82-.32a1.18 1.18 0 0 1-.32-.84c0-.32.107-.587.32-.8.213-.227.487-.34.82-.34.333 0 .607.113.82.34.213.213.32.48.32.8 0 .333-.107.613-.32.84-.213.213-.487.32-.82.32zm7.953 11.6c-.947 0-1.8-.213-2.56-.64a4.902 4.902 0 0 1-1.8-1.78c-.44-.747-.66-1.593-.66-2.54 0-.933.213-1.773.64-2.52a4.843 4.843 0 0 1 1.76-1.76c.746-.44 1.58-.66 2.5-.66.88 0 1.653.2 2.32.6.68.4 1.206.953 1.58 1.66.386.707.58 1.507.58 2.4 0 .133-.007.28-.02.44-.014.147-.04.32-.08.52h-8.02v-1.5h7.06l-.66.58c0-.64-.114-1.18-.34-1.62a2.422 2.422 0 0 0-.96-1.04c-.414-.253-.914-.38-1.5-.38-.614 0-1.154.133-1.62.4-.467.267-.827.64-1.08 1.12-.254.48-.38 1.047-.38 1.7 0 .667.133 1.253.4 1.76.266.493.646.88 1.14 1.16.493.267 1.06.4 1.7.4.533 0 1.02-.093 1.46-.28a3.03 3.03 0 0 0 1.16-.84l1.16 1.18a4.414 4.414 0 0 1-1.68 1.22c-.654.28-1.354.42-2.1.42zm13.042-.2v-5.54c0-.72-.226-1.313-.68-1.78-.453-.467-1.04-.7-1.76-.7-.48 0-.906.107-1.28.32a2.323 2.323 0 0 0-.88.88c-.213.373-.32.8-.32 1.28l-.74-.42c0-.72.16-1.36.48-1.92.32-.56.767-1 1.34-1.32.574-.333 1.22-.5 1.94-.5s1.354.18 1.9.54c.56.36 1 .833 1.32 1.42.32.573.48 1.187.48 1.84v5.9h-1.8zm-6.72 0v-9.5h1.8v9.5h-1.8zm14.977.2c-.88 0-1.666-.213-2.36-.64a4.845 4.845 0 0 1-1.66-1.78c-.4-.747-.6-1.587-.6-2.52s.2-1.773.6-2.52a4.845 4.845 0 0 1 1.66-1.78c.694-.44 1.48-.66 2.36-.66.707 0 1.347.153 1.92.46a3.539 3.539 0 0 1 1.38 1.24c.36.52.56 1.127.6 1.82v2.86a3.673 3.673 0 0 1-.58 1.82 3.7 3.7 0 0 1-1.38 1.26c-.573.293-1.22.44-1.94.44zm.3-1.7c.6 0 1.12-.14 1.56-.42a2.91 2.91 0 0 0 1.06-1.14c.254-.493.38-1.053.38-1.68 0-.653-.133-1.22-.4-1.7a2.91 2.91 0 0 0-1.06-1.14c-.44-.28-.96-.42-1.56-.42-.6 0-1.126.14-1.58.42-.453.28-.813.667-1.08 1.16-.253.48-.38 1.033-.38 1.66 0 .64.127 1.207.38 1.7.267.48.627.86 1.08 1.14.467.28 1 .42 1.6.42zm4.7 1.5h-1.82v-2.56l.34-2.32-.34-2.3v-7.1h1.82V271zm5.641.2c-.533 0-1.04-.067-1.52-.2a5.527 5.527 0 0 1-1.3-.6 4.69 4.69 0 0 1-1.04-.94l1.16-1.16a3.41 3.41 0 0 0 1.2.96c.453.2.96.3 1.52.3s.993-.093 1.3-.28c.307-.2.46-.473.46-.82s-.127-.613-.38-.8c-.24-.2-.553-.36-.94-.48-.387-.133-.8-.26-1.24-.38a7.527 7.527 0 0 1-1.22-.5 2.717 2.717 0 0 1-.96-.82c-.24-.347-.36-.807-.36-1.38 0-.573.14-1.067.42-1.48a2.7 2.7 0 0 1 1.16-.98c.507-.227 1.113-.34 1.82-.34.747 0 1.407.133 1.98.4.587.253 1.067.64 1.44 1.16l-1.16 1.16a2.664 2.664 0 0 0-1-.8 2.994 2.994 0 0 0-1.32-.28c-.52 0-.92.093-1.2.28a.832.832 0 0 0-.4.74c0 .32.12.567.36.74.24.173.553.32.94.44.4.12.813.247 1.24.38.427.12.833.287 1.22.5.387.213.7.5.94.86.253.36.38.833.38 1.42 0 .893-.32 1.6-.96 2.12-.627.52-1.473.78-2.54.78zm19.095-.2-6.64-7.12c-.52-.56-.906-1.093-1.16-1.6a3.71 3.71 0 0 1-.38-1.68c0-.707.167-1.333.5-1.88.334-.56.794-1 1.38-1.32.587-.333 1.26-.5 2.02-.5.56 0 1.067.093 1.52.28.467.173.874.407 1.22.7.36.293.66.627.9 1l-1.3 1.18a4.08 4.08 0 0 0-1.02-1.02c-.36-.267-.8-.4-1.32-.4-.6 0-1.1.18-1.5.54-.4.36-.6.827-.6 1.4 0 .48.1.887.3 1.22.2.333.5.72.9 1.16l7.38 8.04h-2.2zm-4.98.2c-.92 0-1.726-.18-2.42-.54a4.052 4.052 0 0 1-1.62-1.48c-.373-.64-.56-1.367-.56-2.18 0-.84.227-1.6.68-2.28.454-.68 1.114-1.22 1.98-1.62l.86 1.12a3.171 3.171 0 0 0-1.26 1.1c-.306.453-.46 1-.46 1.64 0 .52.12.967.36 1.34.24.373.574.667 1 .88.44.2.94.3 1.5.3.707 0 1.307-.147 1.8-.44a3 3 0 0 0 1.12-1.12l1.18 1.38c-.266.36-.62.687-1.06.98a5.94 5.94 0 0 1-1.44.68c-.52.16-1.073.24-1.66.24zm13.502-.2v-10.92c0-.707.154-1.32.46-1.84a3.371 3.371 0 0 1 1.26-1.26c.547-.307 1.18-.46 1.9-.46.547 0 1.02.093 1.42.28.4.187.767.46 1.1.82l-1.18 1.16a1.724 1.724 0 0 0-.58-.42 1.724 1.724 0 0 0-.78-.16c-.573 0-1.02.167-1.34.5-.306.333-.46.793-.46 1.38V271h-1.8zm-2.34-7.86v-1.64h7.16v1.64h-7.16zm12.462 8.06a4.472 4.472 0 0 1-2.36-.64 4.783 4.783 0 0 1-1.68-1.78c-.4-.747-.6-1.587-.6-2.52s.2-1.773.6-2.52a4.837 4.837 0 0 1 1.66-1.78c.706-.44 1.5-.66 2.38-.66.72 0 1.36.153 1.92.46a3.543 3.543 0 0 1 1.38 1.24c.346.52.54 1.127.58 1.82v2.86a3.68 3.68 0 0 1-.58 1.82 3.552 3.552 0 0 1-1.36 1.26c-.56.293-1.207.44-1.94.44zm.3-1.7c.893 0 1.613-.3 2.16-.9.546-.613.82-1.393.82-2.34 0-.653-.127-1.22-.38-1.7a2.62 2.62 0 0 0-1.04-1.14c-.454-.28-.98-.42-1.58-.42-.6 0-1.134.14-1.6.42-.454.28-.814.667-1.08 1.16-.254.48-.38 1.033-.38 1.66 0 .64.126 1.207.38 1.7.266.48.633.86 1.1 1.14.466.28 1 .42 1.6.42zm2.86 1.5v-2.56l.34-2.32-.34-2.3v-2.32h1.82v9.5h-1.82zm4.44 0v-9.5h1.8v9.5h-1.8zm6.42 0v-5.74c0-.707-.22-1.26-.66-1.66-.426-.413-.966-.62-1.62-.62-.44 0-.833.093-1.18.28a2.262 2.262 0 0 0-.84.78c-.213.333-.32.733-.32 1.2l-.74-.36c0-.72.154-1.347.46-1.88.32-.533.754-.947 1.3-1.24a3.693 3.693 0 0 1 1.84-.46c.667 0 1.267.147 1.8.44.547.293.974.707 1.28 1.24.32.533.48 1.167.48 1.9V271h-1.8zm6.42 0v-5.74c0-.707-.22-1.26-.66-1.66-.426-.413-.96-.62-1.6-.62-.44 0-.84.093-1.2.28a2.262 2.262 0 0 0-.84.78c-.213.333-.32.733-.32 1.2l-1.02-.36c.04-.733.234-1.36.58-1.88.36-.533.82-.947 1.38-1.24a3.766 3.766 0 0 1 1.84-.46c.694 0 1.314.147 1.86.44.547.293.98.707 1.3 1.24.334.533.5 1.173.5 1.92v6.1h-1.82zm4.29 0v-9.5h1.8v9.5h-1.8zm.9-11.4c-.334 0-.607-.107-.82-.32a1.177 1.177 0 0 1-.32-.84c0-.32.106-.587.32-.8.213-.227.486-.34.82-.34.333 0 .606.113.82.34.213.213.32.48.32.8 0 .333-.107.613-.32.84-.214.213-.487.32-.82.32zm3.552 11.4v-14.28h1.8V271h-1.8zm7.554.08-4.12-9.58h2l3.06 7.5h-.64l3.22-7.5h2l-4.44 9.58h-1.08zm-2.72 3.9 2.8-5.74 1 1.84-1.8 3.9h-2zm15.494-3.98v-13.48h1.8V271h-1.8zm-2.34-7.86v-1.64h6.48v1.64h-6.48zm12.29 8.06c-.933 0-1.773-.22-2.52-.66a4.947 4.947 0 0 1-1.78-1.78c-.44-.76-.66-1.607-.66-2.54 0-.92.22-1.747.66-2.48a4.947 4.947 0 0 1 1.78-1.78c.747-.44 1.587-.66 2.52-.66.92 0 1.753.22 2.5.66a4.753 4.753 0 0 1 1.8 1.76c.44.747.66 1.58.66 2.5 0 .933-.22 1.78-.66 2.54a4.902 4.902 0 0 1-1.8 1.78c-.747.44-1.58.66-2.5.66zm0-1.74c.6 0 1.133-.14 1.6-.42.467-.28.833-.66 1.1-1.14.267-.493.4-1.053.4-1.68 0-.613-.14-1.16-.42-1.64a2.868 2.868 0 0 0-1.1-1.12c-.453-.28-.98-.42-1.58-.42-.6 0-1.133.14-1.6.42-.467.267-.833.64-1.1 1.12-.267.48-.4 1.027-.4 1.64 0 .627.133 1.187.4 1.68.267.48.633.86 1.1 1.14.467.28 1 .42 1.6.42zm14.268 1.62-4.12-9.58h2l3.06 7.5h-.64l3.22-7.5h2l-4.44 9.58h-1.08zm-2.72 3.9 2.8-5.74 1 1.84-1.8 3.9h-2zm13.686-3.78c-.933 0-1.773-.22-2.52-.66a4.954 4.954 0 0 1-1.78-1.78c-.44-.76-.66-1.607-.66-2.54 0-.92.22-1.747.66-2.48a4.954 4.954 0 0 1 1.78-1.78c.747-.44 1.587-.66 2.52-.66.92 0 1.754.22 2.5.66a4.753 4.753 0 0 1 1.8 1.76c.44.747.66 1.58.66 2.5 0 .933-.22 1.78-.66 2.54a4.902 4.902 0 0 1-1.8 1.78c-.746.44-1.58.66-2.5.66zm0-1.74c.6 0 1.134-.14 1.6-.42.467-.28.834-.66 1.1-1.14.267-.493.4-1.053.4-1.68 0-.613-.14-1.16-.42-1.64a2.862 2.862 0 0 0-1.1-1.12c-.453-.28-.98-.42-1.58-.42-.6 0-1.133.14-1.6.42-.466.267-.833.64-1.1 1.12-.266.48-.4 1.027-.4 1.64 0 .627.134 1.187.4 1.68.267.48.634.86 1.1 1.14.467.28 1 .42 1.6.42zm10.808 1.74c-.773 0-1.473-.173-2.1-.52a3.842 3.842 0 0 1-1.44-1.48c-.346-.627-.52-1.353-.52-2.18v-5.52h1.8v5.44c0 .52.087.973.26 1.36.187.373.454.66.8.86.347.2.754.3 1.22.3.707 0 1.26-.22 1.66-.66.4-.453.6-1.073.6-1.86v-5.44h1.8v5.52c0 .827-.173 1.553-.52 2.18a3.828 3.828 0 0 1-1.44 1.48c-.6.347-1.306.52-2.12.52zm6.493-.2v-9.5h1.8v9.5h-1.8zm1.8-5.42-.68-.3c0-1.213.28-2.18.84-2.9.56-.72 1.367-1.08 2.42-1.08.48 0 .913.087 1.3.26.387.16.747.433 1.08.82l-1.18 1.22c-.2-.213-.42-.367-.66-.46-.24-.093-.52-.14-.84-.14-.667 0-1.213.213-1.64.64-.427.427-.64 1.073-.64 1.94zm15.739 5.62c-.72 0-1.373-.147-1.96-.44a3.705 3.705 0 0 1-1.38-1.26 3.67 3.67 0 0 1-.58-1.82v-2.86c.04-.693.233-1.3.58-1.82.36-.533.827-.947 1.4-1.24a4.12 4.12 0 0 1 1.94-.46c.867 0 1.647.22 2.34.66a4.632 4.632 0 0 1 1.66 1.78c.4.747.6 1.587.6 2.52s-.2 1.773-.6 2.52c-.4.747-.953 1.34-1.66 1.78-.693.427-1.473.64-2.34.64zm-.3-1.7c.6 0 1.127-.14 1.58-.42.453-.28.813-.66 1.08-1.14.267-.493.4-1.06.4-1.7 0-.627-.133-1.187-.4-1.68a2.884 2.884 0 0 0-1.08-1.14c-.453-.28-.973-.42-1.56-.42-.6 0-1.127.14-1.58.42a2.745 2.745 0 0 0-1.06 1.14c-.253.493-.38 1.06-.38 1.7 0 .627.12 1.187.36 1.68.253.48.607.86 1.06 1.14.467.28.993.42 1.58.42zm-4.7 5.48V261.5h1.8v2.5l-.34 2.3.34 2.32v6.36h-1.8zm16.041-3.78c-.947 0-1.8-.213-2.56-.64a4.902 4.902 0 0 1-1.8-1.78c-.44-.747-.66-1.593-.66-2.54 0-.933.213-1.773.64-2.52a4.838 4.838 0 0 1 1.76-1.76c.746-.44 1.58-.66 2.5-.66.88 0 1.653.2 2.32.6.68.4 1.206.953 1.58 1.66.386.707.58 1.507.58 2.4 0 .133-.007.28-.02.44a5.2 5.2 0 0 1-.08.52h-8.02v-1.5h7.06l-.66.58c0-.64-.114-1.18-.34-1.62a2.427 2.427 0 0 0-.96-1.04c-.414-.253-.914-.38-1.5-.38-.614 0-1.154.133-1.62.4a2.73 2.73 0 0 0-1.08 1.12c-.254.48-.38 1.047-.38 1.7 0 .667.133 1.253.4 1.76.266.493.646.88 1.14 1.16.493.267 1.06.4 1.7.4.533 0 1.02-.093 1.46-.28.453-.187.84-.467 1.16-.84l1.16 1.18a4.425 4.425 0 0 1-1.68 1.22c-.654.28-1.354.42-2.1.42zm6.322-.2v-9.5h1.8v9.5h-1.8zm1.8-5.42-.68-.3c0-1.213.28-2.18.84-2.9.56-.72 1.367-1.08 2.42-1.08.48 0 .914.087 1.3.26.387.16.747.433 1.08.82l-1.18 1.22c-.2-.213-.42-.367-.66-.46-.24-.093-.52-.14-.84-.14-.666 0-1.213.213-1.64.64-.426.427-.64 1.073-.64 1.94zm9.033 5.62c-.534 0-1.04-.067-1.52-.2a5.52 5.52 0 0 1-1.3-.6 4.68 4.68 0 0 1-1.04-.94l1.16-1.16c.346.427.746.747 1.2.96.453.2.96.3 1.52.3s.993-.093 1.3-.28c.306-.2.46-.473.46-.82s-.127-.613-.38-.8c-.24-.2-.554-.36-.94-.48-.387-.133-.8-.26-1.24-.38a7.487 7.487 0 0 1-1.22-.5 2.71 2.71 0 0 1-.96-.82c-.24-.347-.36-.807-.36-1.38 0-.573.14-1.067.42-1.48.28-.427.666-.753 1.16-.98.506-.227 1.113-.34 1.82-.34.746 0 1.406.133 1.98.4.586.253 1.066.64 1.44 1.16l-1.16 1.16a2.667 2.667 0 0 0-1-.8 2.996 2.996 0 0 0-1.32-.28c-.52 0-.92.093-1.2.28a.831.831 0 0 0-.4.74c0 .32.12.567.36.74.24.173.553.32.94.44.4.12.813.247 1.24.38.426.12.833.287 1.22.5.386.213.7.5.94.86.253.36.38.833.38 1.42 0 .893-.32 1.6-.96 2.12-.627.52-1.474.78-2.54.78zm9.855 0c-.933 0-1.773-.22-2.52-.66a4.947 4.947 0 0 1-1.78-1.78c-.44-.76-.66-1.607-.66-2.54 0-.92.22-1.747.66-2.48a4.947 4.947 0 0 1 1.78-1.78c.747-.44 1.587-.66 2.52-.66.92 0 1.753.22 2.5.66a4.753 4.753 0 0 1 1.8 1.76c.44.747.66 1.58.66 2.5 0 .933-.22 1.78-.66 2.54a4.902 4.902 0 0 1-1.8 1.78c-.747.44-1.58.66-2.5.66zm0-1.74c.6 0 1.133-.14 1.6-.42.467-.28.833-.66 1.1-1.14.267-.493.4-1.053.4-1.68 0-.613-.14-1.16-.42-1.64a2.868 2.868 0 0 0-1.1-1.12c-.453-.28-.98-.42-1.58-.42-.6 0-1.133.14-1.6.42-.467.267-.833.64-1.1 1.12-.267.48-.4 1.027-.4 1.64 0 .627.133 1.187.4 1.68.267.48.633.86 1.1 1.14.467.28 1 .42 1.6.42zm13.708 1.54v-5.54c0-.72-.227-1.313-.68-1.78-.453-.467-1.04-.7-1.76-.7-.48 0-.907.107-1.28.32a2.324 2.324 0 0 0-.88.88c-.213.373-.32.8-.32 1.28l-.74-.42c0-.72.16-1.36.48-1.92.32-.56.767-1 1.34-1.32.573-.333 1.22-.5 1.94-.5s1.353.18 1.9.54c.56.36 1 .833 1.32 1.42.32.573.48 1.187.48 1.84v5.9h-1.8zm-6.72 0v-9.5h1.8v9.5h-1.8zm14.997.2a4.474 4.474 0 0 1-2.36-.64 4.783 4.783 0 0 1-1.68-1.78c-.4-.747-.6-1.587-.6-2.52s.2-1.773.6-2.52a4.845 4.845 0 0 1 1.66-1.78c.707-.44 1.5-.66 2.38-.66.72 0 1.36.153 1.92.46a3.543 3.543 0 0 1 1.38 1.24c.347.52.54 1.127.58 1.82v2.86a3.67 3.67 0 0 1-.58 1.82 3.545 3.545 0 0 1-1.36 1.26c-.56.293-1.207.44-1.94.44zm.3-1.7c.893 0 1.613-.3 2.16-.9.547-.613.82-1.393.82-2.34 0-.653-.127-1.22-.38-1.7a2.62 2.62 0 0 0-1.04-1.14c-.453-.28-.98-.42-1.58-.42-.6 0-1.133.14-1.6.42a3.03 3.03 0 0 0-1.08 1.16c-.253.48-.38 1.033-.38 1.66 0 .64.127 1.207.38 1.7.267.48.633.86 1.1 1.14.467.28 1 .42 1.6.42zm2.86 1.5v-2.56l.34-2.32-.34-2.3v-2.32h1.82v9.5h-1.82zm4.441 0v-14.28h1.8V271h-1.8zm4.453 0v-9.5h1.8v9.5h-1.8zm.9-11.4c-.333 0-.606-.107-.82-.32a1.181 1.181 0 0 1-.32-.84c0-.32.107-.587.32-.8.214-.227.487-.34.82-.34.334 0 .607.113.82.34.214.213.32.48.32.8 0 .333-.106.613-.32.84-.213.213-.486.32-.82.32zm2.793 10.42 5.64-7.54h2.12l-5.64 7.54h-2.12zm0 .98v-.98l1.6-.66h6.04V271h-7.64zm.34-7.86v-1.64h7.42v.98l-1.66.66h-5.76zm13.59 8.06c-.947 0-1.8-.213-2.56-.64a4.902 4.902 0 0 1-1.8-1.78c-.44-.747-.66-1.593-.66-2.54 0-.933.213-1.773.64-2.52a4.838 4.838 0 0 1 1.76-1.76c.746-.44 1.58-.66 2.5-.66.88 0 1.653.2 2.32.6.68.4 1.206.953 1.58 1.66.386.707.58 1.507.58 2.4 0 .133-.007.28-.02.44a5.2 5.2 0 0 1-.08.52h-8.02v-1.5h7.06l-.66.58c0-.64-.114-1.18-.34-1.62a2.427 2.427 0 0 0-.96-1.04c-.414-.253-.914-.38-1.5-.38-.614 0-1.154.133-1.62.4a2.73 2.73 0 0 0-1.08 1.12c-.254.48-.38 1.047-.38 1.7 0 .667.133 1.253.4 1.76.266.493.646.88 1.14 1.16.493.267 1.06.4 1.7.4.533 0 1.02-.093 1.46-.28.453-.187.84-.467 1.16-.84l1.16 1.18a4.425 4.425 0 0 1-1.68 1.22c-.654.28-1.354.42-2.1.42zm10.342 0c-.88 0-1.667-.213-2.36-.64a4.845 4.845 0 0 1-1.66-1.78c-.4-.747-.6-1.587-.6-2.52s.2-1.773.6-2.52a4.845 4.845 0 0 1 1.66-1.78c.693-.44 1.48-.66 2.36-.66a4 4 0 0 1 1.92.46 3.543 3.543 0 0 1 1.38 1.24c.36.52.56 1.127.6 1.82v2.86a3.67 3.67 0 0 1-.58 1.82 3.705 3.705 0 0 1-1.38 1.26c-.573.293-1.22.44-1.94.44zm.3-1.7c.6 0 1.12-.14 1.56-.42a2.91 2.91 0 0 0 1.06-1.14c.253-.493.38-1.053.38-1.68 0-.653-.133-1.22-.4-1.7a2.91 2.91 0 0 0-1.06-1.14c-.44-.28-.96-.42-1.56-.42-.6 0-1.127.14-1.58.42a3.03 3.03 0 0 0-1.08 1.16c-.253.48-.38 1.033-.38 1.66 0 .64.127 1.207.38 1.7.267.48.627.86 1.08 1.14.467.28 1 .42 1.6.42zm4.7 1.5h-1.82v-2.56l.34-2.32-.34-2.3v-7.1h1.82V271zm10.721 4.18c-.973 0-1.84-.18-2.6-.54a4.55 4.55 0 0 1-1.8-1.52l1.16-1.18c.387.493.847.867 1.38 1.12.533.267 1.167.4 1.9.4.973 0 1.74-.26 2.3-.78.573-.507.86-1.193.86-2.06v-2.36l.32-2.14-.32-2.12v-2.5h1.8v9.12c0 .907-.213 1.7-.64 2.38-.413.68-1 1.213-1.76 1.6-.747.387-1.613.58-2.6.58zm0-4.34c-.867 0-1.647-.207-2.34-.62a4.512 4.512 0 0 1-1.62-1.7c-.4-.733-.6-1.553-.6-2.46s.2-1.713.6-2.42c.4-.72.94-1.287 1.62-1.7.693-.427 1.473-.64 2.34-.64.747 0 1.407.147 1.98.44a3.394 3.394 0 0 1 1.36 1.24c.347.52.533 1.133.56 1.84v2.52c-.04.693-.233 1.307-.58 1.84a3.44 3.44 0 0 1-1.36 1.22c-.573.293-1.227.44-1.96.44zm.36-1.7c.587 0 1.1-.127 1.54-.38.453-.253.8-.607 1.04-1.06.24-.467.36-1.007.36-1.62 0-.613-.127-1.147-.38-1.6a2.57 2.57 0 0 0-1.02-1.08c-.44-.267-.96-.4-1.56-.4-.6 0-1.127.133-1.58.4a2.802 2.802 0 0 0-1.08 1.08c-.253.453-.38.98-.38 1.58 0 .6.127 1.133.38 1.6.267.467.627.833 1.08 1.1.467.253 1 .38 1.6.38zm7.282 1.86v-9.5h1.8v9.5h-1.8zm1.8-5.42-.68-.3c0-1.213.28-2.18.84-2.9.56-.72 1.367-1.08 2.42-1.08.48 0 .913.087 1.3.26.387.16.747.433 1.08.82l-1.18 1.22c-.2-.213-.42-.367-.66-.46-.24-.093-.52-.14-.84-.14-.667 0-1.213.213-1.64.64-.427.427-.64 1.073-.64 1.94zm10.255 5.62c-.934 0-1.774-.22-2.52-.66a4.947 4.947 0 0 1-1.78-1.78c-.44-.76-.66-1.607-.66-2.54 0-.92.22-1.747.66-2.48a4.947 4.947 0 0 1 1.78-1.78c.746-.44 1.586-.66 2.52-.66.92 0 1.753.22 2.5.66a4.753 4.753 0 0 1 1.8 1.76c.44.747.66 1.58.66 2.5 0 .933-.22 1.78-.66 2.54a4.902 4.902 0 0 1-1.8 1.78c-.747.44-1.58.66-2.5.66zm0-1.74c.6 0 1.133-.14 1.6-.42.466-.28.833-.66 1.1-1.14.266-.493.4-1.053.4-1.68 0-.613-.14-1.16-.42-1.64a2.875 2.875 0 0 0-1.1-1.12c-.454-.28-.98-.42-1.58-.42-.6 0-1.134.14-1.6.42-.467.267-.834.64-1.1 1.12-.267.48-.4 1.027-.4 1.64 0 .627.133 1.187.4 1.68.266.48.633.86 1.1 1.14.466.28 1 .42 1.6.42zm10.808 1.74c-.773 0-1.473-.173-2.1-.52a3.842 3.842 0 0 1-1.44-1.48c-.347-.627-.52-1.353-.52-2.18v-5.52h1.8v5.44c0 .52.087.973.26 1.36a2 2 0 0 0 .8.86c.347.2.753.3 1.22.3.707 0 1.26-.22 1.66-.66.4-.453.6-1.073.6-1.86v-5.44h1.8v5.52c0 .827-.173 1.553-.52 2.18a3.842 3.842 0 0 1-1.44 1.48c-.6.347-1.307.52-2.12.52zm11.492 0c-.72 0-1.373-.147-1.96-.44a3.705 3.705 0 0 1-1.38-1.26 3.68 3.68 0 0 1-.58-1.82v-2.86c.04-.693.234-1.3.58-1.82.36-.533.827-.947 1.4-1.24a4.122 4.122 0 0 1 1.94-.46c.867 0 1.647.22 2.34.66a4.632 4.632 0 0 1 1.66 1.78c.4.747.6 1.587.6 2.52s-.2 1.773-.6 2.52c-.4.747-.953 1.34-1.66 1.78-.693.427-1.473.64-2.34.64zm-.3-1.7c.6 0 1.127-.14 1.58-.42a3.05 3.05 0 0 0 1.08-1.14c.267-.493.4-1.06.4-1.7 0-.627-.133-1.187-.4-1.68a2.87 2.87 0 0 0-1.08-1.14c-.453-.28-.973-.42-1.56-.42-.6 0-1.126.14-1.58.42a2.751 2.751 0 0 0-1.06 1.14c-.253.493-.38 1.06-.38 1.7 0 .627.12 1.187.36 1.68.254.48.607.86 1.06 1.14.467.28.994.42 1.58.42zm-4.7 5.48V261.5h1.8v2.5l-.34 2.3.34 2.32v6.36h-1.8zm12.83-3.78a1.28 1.28 0 0 1-.94-.38 1.36 1.36 0 0 1-.36-.94c0-.373.12-.68.36-.92a1.28 1.28 0 0 1 .94-.38c.374 0 .68.127.92.38.254.24.38.547.38.92 0 .36-.126.673-.38.94-.24.253-.546.38-.92.38z" fill="#000"/></g><defs><clipPath id="a"><rect width="547" height="362" rx="30" fill="#fff"/></clipPath></defs></svg>